<svg version="1.1" id="Layer_1" xmlns="http://www.w3.org/2000/svg" xmlns:xlink="http://www.w3.org/1999/xlink" x="0px" y="0px"
	 width="100%" viewBox="0 0 256 1074" enable-background="new 0 0 256 1074" xml:space="preserve">
<path fill="#53B4F9" opacity="1.000000" stroke="none" 
	d="
M5.000000,1.000000 
	C88.976685,1.000000 172.953369,1.000000 256.965027,1.000000 
	C256.965027,358.877319 256.965027,716.754639 256.965027,1075.000000 
	C188.642197,1075.000000 120.283737,1075.000000 51.390511,1074.535645 
	C51.258953,1040.349365 51.662163,1006.627380 52.279770,972.834717 
	C52.494167,972.764038 52.922604,972.621643 53.390591,972.715454 
	C61.233944,972.803284 68.609314,972.797241 76.452339,972.833740 
	C84.253365,972.842224 91.586731,972.808289 99.328964,972.883362 
	C101.154884,973.063721 102.571938,973.135071 104.073700,973.595764 
	C104.448013,975.953125 104.741104,977.920593 105.026596,979.889160 
	C106.264984,988.428833 106.399910,997.322021 108.999153,1005.424866 
	C112.790230,1017.242920 118.544479,1028.417725 123.084999,1040.014160 
	C125.661018,1046.593384 130.453552,1050.225586 136.896561,1051.760376 
	C147.648361,1054.321533 158.288193,1054.348633 168.558380,1049.334473 
	C172.588425,1047.366943 176.883209,1045.949585 180.996201,1044.142456 
	C190.278564,1040.064087 199.870575,1036.519897 208.679321,1031.585083 
	C216.608917,1027.142822 221.783936,1020.037659 219.880081,1010.089294 
	C218.136719,1000.979492 216.664673,991.715820 213.777237,982.946594 
	C206.158279,959.807861 194.599426,938.114990 191.025635,913.443726 
	C188.657196,897.093628 182.698685,881.298035 179.305740,865.054016 
	C173.967789,839.498169 169.377335,813.784912 164.585907,788.116699 
	C161.444000,771.285156 158.097672,754.475647 155.604935,737.544128 
	C153.598816,723.917664 153.604675,709.966919 151.174133,696.437317 
	C146.850037,672.367249 142.346039,648.386841 141.075241,623.887695 
	C139.955231,602.295593 138.395142,580.723999 136.830460,559.157837 
	C134.598328,528.392090 135.079224,497.660950 137.224457,466.911224 
	C139.030090,441.029510 140.511719,415.124908 142.074326,389.226654 
	C142.835648,376.608856 142.898773,363.921478 144.274048,351.374817 
	C146.121475,334.520477 148.639481,317.723633 151.392319,300.988068 
	C156.734528,268.510468 162.205429,236.050247 168.059998,203.661819 
	C174.506454,167.998962 180.145432,132.187149 192.331879,97.746422 
	C196.635742,85.583054 196.617294,72.724525 185.220093,62.523369 
	C180.993683,58.740475 177.078690,55.678303 171.413284,54.479309 
	C157.253540,51.482609 143.126984,48.273041 129.118454,44.642227 
	C122.438484,42.910877 116.062431,40.012436 109.539337,37.668728 
	C104.289757,35.782581 99.122368,33.559597 93.740448,32.181496 
	C88.771904,30.909243 83.504547,30.845474 78.478584,29.747099 
	C68.520966,27.570955 59.746449,29.999828 51.588398,35.706436 
	C45.641048,39.866642 44.777885,39.678452 39.313316,34.624344 
	C32.231209,28.074188 24.906324,21.779751 17.970385,15.080735 
	C13.388179,10.655052 9.306033,5.711623 5.000000,1.000000 
z"/>
<path fill="#C1D9BD" opacity="1.000000" stroke="none" 
	d="
M1.000000,428.000000 
	C1.000000,337.645782 1.000000,247.291550 1.468506,156.482147 
	C13.717663,156.004395 25.498320,155.984161 37.278961,155.957764 
	C40.431301,155.950699 43.679855,156.372787 46.696632,155.724609 
	C48.282501,155.383896 49.462852,153.155777 50.826317,151.779938 
	C49.481426,150.548981 48.293137,149.027023 46.736568,148.189499 
	C45.699654,147.631561 44.137531,148.034714 42.810444,148.033371 
	C28.873634,148.019257 14.936816,148.010345 1.000000,148.000000 
	C1.000000,113.312439 1.000000,78.624878 1.345724,43.485672 
	C5.323586,47.950981 9.179498,52.722145 12.510650,57.835190 
	C14.802317,61.352711 17.776318,63.077930 21.742382,63.863899 
	C39.035679,67.290955 56.234676,69.833298 74.111320,68.272141 
	C93.488899,66.579918 112.995384,67.304428 131.886642,73.147903 
	C137.768250,74.967209 144.498260,74.479004 148.899963,80.280869 
	C153.430481,86.252510 156.498566,92.414658 156.712875,100.200798 
	C156.994507,110.432762 157.238907,120.329384 151.069565,129.368912 
	C146.886719,135.497787 143.531296,142.191360 139.548401,148.794556 
	C139.235245,149.952484 139.179520,150.948242 139.105621,152.337341 
	C137.504593,156.902130 135.921738,161.073578 134.338882,165.245041 
	C133.772659,165.190826 133.206421,165.136597 132.640182,165.082382 
	C130.676865,161.675201 128.713562,158.268021 126.750252,154.860855 
	C126.199951,155.206116 125.649651,155.551376 125.099350,155.896637 
	C125.734383,157.332687 126.449028,158.739471 126.989700,160.210220 
	C128.686752,164.826660 131.239792,169.363037 131.777512,174.120728 
	C132.799377,183.162262 132.822479,192.333389 132.950592,201.455032 
	C133.113327,213.041046 133.198837,224.637833 132.875702,236.217636 
	C132.654144,244.157181 131.679428,252.075684 130.848419,260.216370 
	C130.642365,260.975464 130.629272,261.521851 130.497528,262.499695 
	C130.267151,265.626831 130.155411,268.322449 129.851013,271.219788 
	C129.631134,271.947968 129.603897,272.474457 129.470428,273.439789 
	C129.259491,276.592896 129.154785,279.307159 128.835037,282.262573 
	C128.569641,283.336060 128.519287,284.168365 128.384491,285.374084 
	C128.230408,288.178040 128.160736,290.608582 127.875992,293.279175 
	C127.599434,294.346344 127.537964,295.173431 127.390945,296.373901 
	C127.237671,299.179932 127.169945,301.612640 126.877335,304.312195 
	C126.593086,305.716980 126.533722,306.854889 126.390915,308.354980 
	C126.224640,311.153198 126.141815,313.589233 125.843216,316.265381 
	C125.575615,317.337280 125.523781,318.169037 125.386452,319.368591 
	C125.221802,322.499786 125.142647,325.263123 124.865952,328.224182 
	C124.603859,328.951508 124.539322,329.481110 124.389458,330.400055 
	C124.280952,331.848969 124.257782,332.908539 124.170624,334.309082 
	C124.124260,335.110382 124.141884,335.570770 124.112549,336.403473 
	C124.063148,337.526215 124.060707,338.276642 123.844040,339.273193 
	C123.582214,340.365936 123.534607,341.212524 123.397903,342.415771 
	C123.226791,345.187805 123.144768,347.603119 122.849251,350.266602 
	C122.592278,351.363434 122.548790,352.212158 122.414932,353.427551 
	C121.965363,358.080475 121.734489,362.382080 121.223633,366.650177 
	C119.472557,381.279877 118.304977,396.028748 115.532570,410.466736 
	C114.080513,418.028656 114.028206,427.001129 105.682648,432.083862 
	C104.212669,433.097473 103.038170,433.985199 101.542404,434.985474 
	C97.878502,436.763458 94.577789,439.742859 91.185463,439.851074 
	C80.454773,440.193420 69.689827,439.461823 58.754211,438.933411 
	C58.043003,438.637634 57.515701,438.554077 56.586094,438.371124 
	C45.961536,435.036774 35.777924,431.670563 25.494429,428.643738 
	C22.242687,427.686646 18.727715,427.292175 15.326447,427.254730 
	C10.554277,427.202179 5.775786,427.723907 1.000000,428.000000 
z"/>
<path fill="#C1D9BE" opacity="1.000000" stroke="none" 
	d="
M4.500000,1.000000 
	C9.306033,5.711623 13.388179,10.655052 17.970385,15.080735 
	C24.906324,21.779751 32.231209,28.074188 39.313316,34.624344 
	C44.777885,39.678452 45.641048,39.866642 51.588398,35.706436 
	C59.746449,29.999828 68.520966,27.570955 78.478584,29.747099 
	C83.504547,30.845474 88.771904,30.909243 93.740448,32.181496 
	C99.122368,33.559597 104.289757,35.782581 109.539337,37.668728 
	C116.062431,40.012436 122.438484,42.910877 129.118454,44.642227 
	C143.126984,48.273041 157.253540,51.482609 171.413284,54.479309 
	C177.078690,55.678303 180.993683,58.740475 185.220093,62.523369 
	C196.617294,72.724525 196.635742,85.583054 192.331879,97.746422 
	C180.145432,132.187149 174.506454,167.998962 168.059998,203.661819 
	C162.205429,236.050247 156.734528,268.510468 151.392319,300.988068 
	C148.639481,317.723633 146.121475,334.520477 144.274048,351.374817 
	C142.898773,363.921478 142.835648,376.608856 142.074326,389.226654 
	C140.511719,415.124908 139.030090,441.029510 137.224457,466.911224 
	C135.079224,497.660950 134.598328,528.392090 136.830460,559.157837 
	C138.395142,580.723999 139.955231,602.295593 141.075241,623.887695 
	C142.346039,648.386841 146.850037,672.367249 151.174133,696.437317 
	C153.604675,709.966919 153.598816,723.917664 155.604935,737.544128 
	C158.097672,754.475647 161.444000,771.285156 164.585907,788.116699 
	C169.377335,813.784912 173.967789,839.498169 179.305740,865.054016 
	C182.698685,881.298035 188.657196,897.093628 191.025635,913.443726 
	C194.599426,938.114990 206.158279,959.807861 213.777237,982.946594 
	C216.664673,991.715820 218.136719,1000.979492 219.880081,1010.089294 
	C221.783936,1020.037659 216.608917,1027.142822 208.679321,1031.585083 
	C199.870575,1036.519897 190.278564,1040.064087 180.996201,1044.142456 
	C176.883209,1045.949585 172.588425,1047.366943 168.558380,1049.334473 
	C158.288193,1054.348633 147.648361,1054.321533 136.896561,1051.760376 
	C130.453552,1050.225586 125.661018,1046.593384 123.084999,1040.014160 
	C118.544479,1028.417725 112.790230,1017.242920 108.999153,1005.424866 
	C106.399910,997.322021 106.264984,988.428833 105.026596,979.889160 
	C104.741104,977.920593 104.448013,975.953125 104.521652,973.541626 
	C107.694435,972.994812 110.661972,973.428467 113.275635,972.659424 
	C116.971954,971.571960 118.277290,972.866882 119.339455,976.173462 
	C123.134483,987.988037 127.005821,999.784180 131.193100,1011.463684 
	C132.865295,1016.128052 133.860733,1021.669495 140.238190,1023.355530 
	C141.489761,1023.381287 142.487579,1023.191833 143.741089,1023.003418 
	C144.507889,1022.991760 145.019028,1022.979004 145.594421,1023.354248 
	C146.334930,1024.745728 146.934036,1026.543091 147.700623,1026.617676 
	C151.328293,1026.970337 155.019028,1027.063599 158.647827,1026.766724 
	C159.671509,1026.682983 160.561523,1024.965210 161.677002,1024.000610 
	C161.841141,1024.004395 162.169525,1024.007568 162.169525,1024.007568 
	C162.169525,1024.007568 162.497925,1024.006470 162.637756,1024.351318 
	C166.228592,1024.206543 169.679581,1023.716858 173.501343,1023.198486 
	C177.542526,1021.528259 182.163681,1021.179626 183.620605,1015.989624 
	C186.830673,1011.380127 186.714157,1006.020142 183.078644,1001.047852 
	C173.238297,987.589355 167.910141,971.963684 161.984985,956.696655 
	C157.656784,945.544373 154.660156,933.880188 150.825943,922.526550 
	C150.185867,920.631287 148.298889,919.157166 146.992371,917.324341 
	C147.001175,916.941528 147.004013,916.722778 147.251434,916.294678 
	C145.998596,911.221680 144.499466,906.358032 143.002228,901.330017 
	C143.006180,900.946533 143.007477,900.727417 143.216629,900.219360 
	C142.951370,898.787292 142.477509,897.644104 142.004822,896.334961 
	C142.007263,895.947754 142.007935,895.726562 142.211578,895.197815 
	C141.943787,892.301270 141.331512,889.728882 141.022995,887.120605 
	C137.825470,860.087769 134.676910,833.049133 131.581024,805.741577 
	C131.408600,804.990540 131.169876,804.510010 130.924820,803.683472 
	C130.784363,801.229004 130.650253,799.120605 130.583008,796.740723 
	C130.413269,795.988159 130.176651,795.507019 129.930511,794.680115 
	C129.789246,792.227051 129.657471,790.119873 129.591293,787.741089 
	C129.418198,786.988281 129.179504,786.507019 128.933029,785.679932 
	C128.791870,783.226868 128.658478,781.119751 128.591782,778.740356 
	C128.419754,777.987122 128.181061,777.506104 127.932129,776.679199 
	C127.793320,774.226501 127.664757,772.119751 127.599449,769.740356 
	C127.420090,768.988037 127.177475,768.508240 126.927261,767.682495 
	C126.791527,765.228577 126.663406,763.120605 126.599655,760.740112 
	C126.427414,759.985046 126.190804,759.502563 125.943634,758.674438 
	C125.799980,756.223389 125.666878,754.117920 125.598877,751.740356 
	C125.425766,750.986145 125.187538,750.504150 124.966431,749.580566 
	C124.832817,747.093933 124.682076,745.048828 124.596680,742.698608 
	C124.414177,741.604919 124.166336,740.816406 123.936943,739.590027 
	C123.161751,731.569885 122.249382,723.997620 121.599579,716.403015 
	C120.314285,701.380859 118.981422,686.358459 118.039215,671.312866 
	C117.368881,660.608826 117.746056,649.825745 116.752625,639.162048 
	C116.360069,634.948364 117.866646,629.597229 113.000351,626.328613 
	C113.003639,625.940979 113.003929,625.719421 113.334503,625.384033 
	C113.611618,621.850525 113.557167,618.430908 113.570816,614.740967 
	C113.406746,613.988770 113.174568,613.506775 112.958511,612.603027 
	C112.819786,610.791321 112.664948,609.401489 112.576965,607.740723 
	C112.409386,606.988464 112.174957,606.507080 111.957581,605.604187 
	C111.825195,603.792725 111.675766,602.402649 111.590347,600.740601 
	C111.415192,599.988281 111.176033,599.507874 110.955292,598.606018 
	C110.827049,596.793884 110.680397,595.403320 110.597168,593.739929 
	C110.421036,592.986511 110.181473,592.505920 109.959106,591.604431 
	C109.830444,589.793396 109.684593,588.403198 109.601807,586.740356 
	C109.421768,585.987915 109.178665,585.508057 108.955719,584.607117 
	C108.828072,582.794861 108.680267,581.403748 108.598129,579.740173 
	C108.426201,578.985596 108.188614,578.503418 107.967758,577.598755 
	C107.833900,575.781433 107.683311,574.386475 107.592918,572.670044 
	C107.151657,571.140503 106.650200,569.932495 106.167427,568.385376 
	C106.156090,567.367920 106.126076,566.689636 106.244263,565.828491 
	C106.245987,565.098694 106.099518,564.551697 105.970619,563.577087 
	C104.742317,550.478577 102.670647,537.819763 102.485878,525.133423 
	C102.305794,512.768860 104.055595,500.376282 105.152481,487.787354 
	C105.400986,487.032684 105.455124,486.486694 105.607285,485.524689 
	C105.788727,483.399628 105.872154,481.690552 106.151321,479.782227 
	C106.408730,479.051849 106.470390,478.520721 106.635178,477.581665 
	C106.807114,475.774780 106.875916,474.375824 107.141647,472.778198 
	C107.407219,472.049194 107.475853,471.518890 107.619553,470.658417 
	C107.778458,468.544678 107.862282,466.761078 108.145607,464.781067 
	C108.409996,464.052673 108.474892,463.520752 108.619652,462.638062 
	C109.447151,456.850250 110.194778,451.413147 111.140900,445.779114 
	C111.402603,445.051178 111.465813,444.520203 111.587021,443.640686 
	C113.051720,436.518829 113.995193,429.608185 115.954651,422.998718 
	C121.188583,405.344147 122.803108,387.210846 124.154167,368.782837 
	C124.404877,368.051605 124.461639,367.521027 124.611649,366.555054 
	C124.786438,363.739410 124.868004,361.359192 125.146111,358.780518 
	C125.402023,358.051422 125.461395,357.520691 125.610092,356.601105 
	C125.728416,355.151306 125.757408,354.090393 125.847916,352.689026 
	C125.890663,351.889374 125.871902,351.430145 125.892365,350.639496 
	C125.934090,349.863312 125.936592,349.418579 126.155487,348.733917 
	C126.424683,347.662415 126.477478,346.830811 126.616074,345.608887 
	C126.724998,344.156189 126.748131,343.093811 126.829010,341.690613 
	C126.871605,340.890137 126.856438,340.430511 126.894638,339.600098 
	C126.945282,338.480225 126.942581,337.731171 127.158325,336.737671 
	C127.429070,335.643005 127.481354,334.792694 127.620575,333.584839 
	C127.785294,330.809692 127.863075,328.392151 128.156616,325.734222 
	C128.422470,324.662445 128.472565,323.831024 128.606049,322.637817 
	C128.772934,319.842041 128.856400,317.408142 129.155518,314.733795 
	C129.420151,313.662231 129.469131,312.831055 129.603180,311.632050 
	C129.773254,308.501587 129.858261,305.738983 130.139740,302.778290 
	C130.395645,302.050140 130.455078,301.520111 130.602936,300.611206 
	C130.774353,297.480011 130.857315,294.727692 131.133591,291.774933 
	C131.348602,291.050507 131.370270,290.526520 131.493164,289.626007 
	C131.709900,286.491638 131.825409,283.733765 132.133087,280.774658 
	C132.341263,280.050659 132.357285,279.527924 132.480377,278.607941 
	C132.982788,272.817261 133.378128,267.423828 133.837112,261.692627 
	C133.897552,260.897919 133.894363,260.440918 133.929199,259.554504 
	C134.980103,246.713974 136.691071,234.310349 136.823166,221.889923 
	C136.976669,207.456543 135.563492,193.012543 135.238541,178.563965 
	C135.152405,174.733353 136.108337,170.708084 137.393646,167.056534 
	C139.508636,161.047775 141.939468,155.378036 147.046356,150.701111 
	C151.184555,146.911316 153.161667,140.860672 156.601318,136.183472 
	C160.635132,130.698318 163.947067,124.950317 164.066986,118.072052 
	C164.240097,108.144249 166.111420,97.483551 163.170486,88.469177 
	C159.952332,78.605164 154.081573,68.593788 141.025757,66.658104 
	C125.971436,64.426117 111.500511,58.711910 95.849556,59.878204 
	C85.252243,60.667908 74.574493,60.324680 63.959946,60.950165 
	C50.110584,61.766266 36.906433,58.144077 23.553949,55.580929 
	C21.746820,55.234032 19.954527,53.280449 18.739168,51.638657 
	C12.718473,43.505447 6.893777,35.227158 1.000000,27.000000 
	C1.000000,19.166666 1.252103,11.321219 0.876581,3.505930 
	C0.725239,0.356244 2.345620,1.048077 4.500000,1.000000 
z"/>
<path fill="#C1D9BE" opacity="1.000000" stroke="none" 
	d="
M113.002945,625.497925 
	C113.003929,625.719421 113.003639,625.940979 112.752167,626.666260 
	C112.517975,628.801575 112.436317,630.440857 112.565300,632.063354 
	C113.353767,641.981628 114.475082,651.882996 114.927437,661.815491 
	C115.351227,671.120605 114.403076,680.520020 115.255913,689.767517 
	C117.294830,711.875793 120.038742,733.919128 122.429749,756.258911 
	C122.594948,757.010559 122.828407,757.492004 123.071236,758.319275 
	C123.214409,760.772644 123.348213,762.880188 123.415779,765.258911 
	C123.589485,766.010132 123.829430,766.490112 124.076019,767.316162 
	C124.213654,769.770508 124.344650,771.878845 124.410156,774.259399 
	C124.583969,775.012024 124.823265,775.492371 125.072655,776.318848 
	C125.215378,778.772583 125.348000,780.880249 125.412170,783.259399 
	C125.583229,784.011597 125.822754,784.492249 126.071808,785.318848 
	C126.209229,787.772156 126.337128,789.879578 126.401276,792.259949 
	C126.578072,793.013245 126.818611,793.493713 127.069931,794.320068 
	C127.211388,796.773193 127.342056,798.880493 127.405952,801.259399 
	C127.578491,802.012512 127.817802,802.493835 128.065094,803.321045 
	C128.203033,805.773682 128.333008,807.880493 128.400452,810.260010 
	C128.576324,811.014099 128.814758,811.495483 129.036041,812.417969 
	C129.169449,814.901917 129.319992,816.944824 129.405243,819.259094 
	C129.575958,820.013428 129.811981,820.496338 130.027435,821.422974 
	C131.465012,835.187195 132.797165,848.523193 134.422928,861.823303 
	C135.626587,871.670227 137.094299,881.490356 138.748734,891.270935 
	C139.011063,892.821777 140.881271,894.100647 142.008087,895.505310 
	C142.007935,895.726562 142.007263,895.947754 141.676865,896.438904 
	C139.173599,899.167175 141.220367,899.781128 143.008026,900.508240 
	C143.007477,900.727417 143.006180,900.946533 142.726349,901.617432 
	C143.967422,906.880859 145.486282,911.692383 147.005142,916.503967 
	C147.004013,916.722778 147.001175,916.941528 146.951141,917.691650 
	C147.821793,921.901001 148.592804,925.622620 149.684662,929.247681 
	C151.880554,936.538025 154.247360,943.777039 156.552399,951.034424 
	C157.263290,953.272644 157.556015,955.233459 154.591263,956.159851 
	C143.715042,959.558350 132.863632,963.036316 121.672714,966.378784 
	C120.884064,966.216675 120.425560,966.160095 119.903809,965.720032 
	C118.183319,959.138428 116.628181,952.909729 114.784454,946.767639 
	C114.406693,945.509277 112.948044,944.575317 111.989731,943.327148 
	C111.994492,942.942627 111.997330,942.722900 112.249191,942.255981 
	C111.996613,941.170593 111.495178,940.332520 110.994186,939.328857 
	C110.995285,938.942383 110.996254,938.721558 111.310883,938.394348 
	C111.080078,937.355774 110.535934,936.423645 109.992661,935.326538 
	C109.994675,934.941650 109.996002,934.721741 110.309090,934.392456 
	C110.077652,933.352295 109.534653,932.421692 108.992538,931.326294 
	C108.994606,930.941772 108.995964,930.722046 109.308411,930.391602 
	C109.076927,929.351440 108.534523,928.421936 107.992905,927.327637 
	C107.994713,926.943054 107.995934,926.723206 108.327606,926.375854 
	C108.104691,923.997864 107.551521,921.747498 106.998474,919.332336 
	C106.999184,918.947937 107.000862,918.728333 107.189827,918.270264 
	C102.921745,901.947205 102.721016,885.407227 102.016693,868.907227 
	C101.082664,847.025696 100.151886,825.140503 98.790710,803.283630 
	C98.521439,798.959656 96.310524,794.756653 94.995087,790.331299 
	C94.995399,789.942749 94.995995,789.720703 95.358467,789.353699 
	C95.981285,787.856079 96.573372,786.471313 96.446053,785.156311 
	C95.923935,779.763550 95.182625,774.391968 94.586624,768.741211 
	C94.410889,767.989929 94.170502,767.510071 93.924896,766.695007 
	C93.786224,764.577332 93.652786,762.794800 93.585541,760.740540 
	C93.414360,759.987915 93.176994,759.507080 92.931091,758.691162 
	C92.787949,756.574768 92.653343,754.793396 92.585083,752.740356 
	C92.412819,751.988525 92.174202,751.508362 91.928207,750.692993 
	C91.786308,748.575867 91.651779,746.793884 91.585838,744.740479 
	C91.416321,743.988159 91.178230,743.507202 90.916054,742.638062 
	C89.545403,736.617065 88.212975,730.980835 86.847809,725.352539 
	C85.745720,720.808899 83.535828,717.061157 78.997375,714.646484 
	C77.888123,713.575256 76.949509,712.767700 75.783386,711.725403 
	C74.059273,710.224915 72.562683,708.959167 70.948021,707.519043 
	C70.644951,707.128845 70.432648,706.944458 69.972557,706.544800 
	C62.638676,700.388550 56.897739,693.671265 55.690205,683.966858 
	C55.551933,682.855713 53.609043,681.969055 52.247536,680.900269 
	C51.335674,680.048279 50.679161,679.274353 50.347534,678.396179 
	C52.530888,674.540039 49.309307,674.454529 47.105331,673.244385 
	C40.581932,668.958984 34.466793,664.400391 27.722397,661.145874 
	C21.938015,658.354675 16.937878,655.829163 13.886195,649.469482 
	C10.420980,642.247986 5.364635,635.789917 0.999995,629.000000 
	C1.000000,614.312439 1.000000,599.624878 1.336624,584.469788 
	C2.346122,584.022034 3.018996,584.041809 4.120078,583.978882 
	C7.377298,583.572388 10.206309,583.248474 13.367308,583.161560 
	C18.484581,583.455383 23.269869,583.512268 28.510487,583.649841 
	C33.633400,583.744812 38.300983,583.759033 43.373569,583.842651 
	C44.872013,583.872192 45.965454,583.832397 47.520927,583.838257 
	C49.806404,583.912720 51.649879,583.777283 53.450054,583.996826 
	C65.397072,585.453979 72.823997,579.106384 79.011742,569.892334 
	C85.444107,560.314026 92.387108,551.078613 99.326004,541.784058 
	C99.545204,541.874756 99.992142,542.033936 99.987442,542.466370 
	C101.007660,549.929504 102.032585,556.960144 103.046341,564.333496 
	C103.100708,565.127808 103.166237,565.579529 103.212189,566.406372 
	C103.296097,567.522949 103.399590,568.264404 103.438622,569.334351 
	C103.649391,570.747681 103.924614,571.832397 104.186768,573.306519 
	C104.281250,574.465637 104.388794,575.235291 104.433456,576.333984 
	C104.647682,577.747131 104.924805,578.831177 105.186867,580.304810 
	C105.278168,581.464417 105.384514,582.234497 105.425690,583.333679 
	C105.639084,584.747864 105.917664,585.832886 106.181534,587.306641 
	C106.267281,588.464294 106.367729,589.233276 106.409988,590.332886 
	C106.633934,591.747803 106.916069,592.832153 107.181885,594.293213 
	C108.193008,601.661255 109.087891,608.675720 110.305367,615.633728 
	C110.890305,618.976807 112.084595,622.213196 113.002945,625.497925 
z"/>
<path fill="#54B4F9" opacity="1.000000" stroke="none" 
	d="
M1.000000,801.000000 
	C1.000000,757.979126 1.000000,714.958191 1.263609,671.669556 
	C11.832691,681.055420 22.060251,690.794006 32.472916,700.330505 
	C38.695515,706.029480 45.410820,711.197144 51.540997,716.988586 
	C59.954468,724.937195 59.782619,736.790527 63.724911,746.706909 
	C68.151260,757.841003 70.308723,770.169006 71.627243,782.178040 
	C73.584785,800.007385 73.911896,818.014465 74.980339,835.943054 
	C75.949478,852.205444 76.691620,868.489136 78.091888,884.715332 
	C78.977394,894.976624 81.003067,904.962646 86.560745,914.148315 
	C93.809334,926.128662 99.459473,938.937256 101.751549,952.928406 
	C102.664520,958.501282 103.171425,964.140686 103.457993,969.811707 
	C101.963181,969.875488 100.873566,969.877380 99.732903,969.759949 
	C99.412148,969.498901 99.187965,969.553833 98.669861,969.838379 
	C90.900177,969.839111 83.469933,969.806946 75.685654,969.570068 
	C67.569511,969.334839 59.807392,969.304260 51.678555,969.187988 
	C50.325291,968.998108 49.338753,968.893921 48.056015,968.550293 
	C44.380810,967.456787 40.908676,966.855469 37.656719,965.656799 
	C35.609375,964.902161 33.301132,963.657471 32.123585,961.938232 
	C25.256794,951.912781 18.652637,941.705994 12.063133,931.493713 
	C11.108645,930.014526 10.125337,928.169922 10.144631,926.505859 
	C10.331559,910.383240 10.492702,894.252930 11.180431,878.146973 
	C11.469684,871.373047 13.994732,864.615173 13.746103,857.915161 
	C13.304842,846.024109 11.247754,834.202454 10.395499,822.313904 
	C9.795175,813.939636 6.654069,806.992859 1.000000,801.000000 
z"/>
<path fill="#54B4F9" opacity="1.000000" stroke="none" 
	d="
M1.000000,561.000000 
	C1.000000,523.312439 1.000000,485.624878 1.420915,447.486206 
	C4.311149,447.368469 6.772030,447.896454 9.251147,448.003967 
	C26.310066,448.743866 41.169876,455.107117 54.379932,465.617920 
	C65.846565,474.741577 71.979439,487.924164 79.888596,499.736115 
	C80.575027,500.761322 80.146263,502.585999 80.106461,504.035736 
	C79.915092,511.005341 77.545311,518.184021 83.029953,524.520264 
	C83.881966,525.504517 83.065269,528.676880 82.128204,530.332458 
	C78.769333,536.266846 74.508621,541.734680 71.566109,547.849243 
	C68.169426,554.907532 62.427177,558.125244 55.693127,561.103638 
	C49.013767,564.057800 42.816814,564.897339 35.552036,563.374939 
	C24.233021,561.002991 12.761369,558.069946 1.000000,561.000000 
z"/>
<path fill="#C0D9BE" opacity="1.000000" stroke="none" 
	d="
M103.863182,969.749817 
	C103.171425,964.140686 102.664520,958.501282 101.751549,952.928406 
	C99.459473,938.937256 93.809334,926.128662 86.560745,914.148315 
	C81.003067,904.962646 78.977394,894.976624 78.091888,884.715332 
	C76.691620,868.489136 75.949478,852.205444 74.980339,835.943054 
	C73.911896,818.014465 73.584785,800.007385 71.627243,782.178040 
	C70.308723,770.169006 68.151260,757.841003 63.724911,746.706909 
	C59.782619,736.790527 59.954468,724.937195 51.540997,716.988586 
	C45.410820,711.197144 38.695515,706.029480 32.472916,700.330505 
	C22.060251,690.794006 11.832691,681.055420 1.263609,671.200928 
	C1.000000,660.312439 1.000000,649.624878 1.363063,638.442688 
	C2.945817,639.179321 4.431158,640.240967 5.342670,641.668945 
	C11.887279,651.921875 17.344175,663.012268 27.983776,670.454163 
	C30.099621,672.157410 32.037979,673.581665 33.984390,675.006592 
	C33.992435,675.007324 33.993946,675.023621 33.989906,675.361816 
	C35.318275,677.145325 36.650681,678.590637 38.150223,680.322021 
	C42.561295,684.472351 46.805233,688.336670 51.159981,692.223145 
	C51.270786,692.245300 51.496780,692.243896 51.688919,692.527710 
	C57.199497,697.905396 62.517941,702.999207 68.016083,708.358521 
	C69.069641,709.201111 69.943497,709.778137 70.913986,710.658630 
	C72.270340,712.039429 73.530045,713.116821 74.963165,714.382202 
	C75.578888,714.789673 76.021202,715.009216 76.655670,715.518127 
	C83.969612,722.294495 85.229546,731.359253 87.415794,740.259705 
	C87.588852,741.011475 87.827278,741.491516 88.073463,742.306396 
	C88.211891,744.423340 88.342552,746.205322 88.405945,748.259155 
	C88.581902,749.010681 88.825134,749.490417 89.073914,750.305054 
	C89.208725,752.422485 89.337997,754.204895 89.403198,756.260010 
	C89.579117,757.013184 89.819107,757.493713 90.068085,758.309082 
	C90.208214,760.425232 90.339355,762.206360 90.405678,764.259766 
	C90.579964,765.012878 90.819077,765.493835 91.066208,766.309448 
	C91.203506,768.425171 91.332779,770.206299 91.398743,772.260071 
	C91.572556,773.015076 91.809677,773.497375 92.029594,774.411987 
	C92.168106,776.559082 92.323814,778.273743 92.412636,780.259521 
	C92.578972,781.013794 92.812202,781.497009 93.028214,782.392212 
	C93.672981,785.035645 94.334976,787.267151 94.996964,789.498657 
	C94.995995,789.720703 94.995399,789.942749 94.745193,790.668579 
	C94.508995,792.802734 94.373657,794.450439 94.561104,796.060547 
	C95.654305,805.450745 97.424110,814.805725 97.838432,824.222107 
	C98.641617,842.476624 98.450142,860.773438 99.153015,879.034180 
	C99.584892,890.254333 99.185013,901.675964 103.337234,912.436707 
	C104.175400,914.608887 105.762085,916.492249 107.003654,918.508728 
	C107.000862,918.728333 106.999184,918.947937 106.667664,919.458862 
	C106.890266,922.001160 107.443802,924.252319 107.997345,926.503418 
	C107.995934,926.723206 107.994713,926.943054 107.806442,927.592834 
	C108.078629,928.849304 108.538055,929.675842 108.997490,930.502319 
	C108.995964,930.722046 108.994606,930.941772 108.806709,931.592285 
	C109.079163,932.849365 109.538330,933.675659 109.997513,934.501892 
	C109.996002,934.721741 109.994675,934.941650 109.806519,935.592163 
	C110.078835,936.848755 110.538185,937.674805 110.997543,938.500793 
	C110.996254,938.721558 110.995285,938.942383 110.803238,939.591675 
	C111.074684,940.847900 111.537521,941.675537 112.000351,942.503235 
	C111.997330,942.722900 111.994492,942.942627 111.948532,943.705566 
	C113.394760,952.179871 114.884285,960.111023 116.582603,969.153870 
	C112.251968,969.356750 108.057571,969.553284 103.863182,969.749817 
z"/>
<path fill="#C1D9BE" opacity="1.000000" stroke="none" 
	d="
M1.000000,561.468628 
	C12.761369,558.069946 24.233021,561.002991 35.552036,563.374939 
	C42.816814,564.897339 49.013767,564.057800 55.693127,561.103638 
	C62.427177,558.125244 68.169426,554.907532 71.566109,547.849243 
	C74.508621,541.734680 78.769333,536.266846 82.128204,530.332458 
	C83.065269,528.676880 83.881966,525.504517 83.029953,524.520264 
	C77.545311,518.184021 79.915092,511.005341 80.106461,504.035736 
	C80.146263,502.585999 80.575027,500.761322 79.888596,499.736115 
	C71.979439,487.924164 65.846565,474.741577 54.379932,465.617920 
	C41.169876,455.107117 26.310066,448.743866 9.251147,448.003967 
	C6.772030,447.896454 4.311149,447.368469 1.420915,447.017517 
	C1.000000,441.977905 1.000000,436.955811 1.468480,431.452972 
	C13.723987,430.517426 25.388939,430.637848 36.645409,435.122467 
	C45.196426,438.529205 54.198479,440.660797 60.310631,448.656006 
	C63.452148,452.765381 68.015343,455.787903 72.058594,459.468750 
	C72.371452,459.848206 72.599991,460.004730 73.125870,460.313416 
	C76.848274,463.749908 80.311546,466.978455 83.954346,470.479248 
	C86.085144,472.514832 88.036415,474.278198 90.206787,476.270142 
	C91.698776,479.482025 93.308838,482.370361 94.180328,485.466644 
	C96.635208,494.188446 100.711906,502.544128 99.963844,512.016296 
	C99.415680,518.957336 99.396080,525.939331 98.900764,532.885925 
	C98.779060,534.592834 98.017799,536.434753 97.044319,537.871643 
	C89.338417,549.245667 81.790779,560.745300 73.602348,571.766296 
	C69.424164,577.389832 63.834263,581.734009 55.644348,580.817627 
	C51.187000,580.561951 47.061913,580.539856 42.485210,580.420166 
	C37.367676,580.304016 32.701759,580.285339 27.688673,580.198120 
	C26.872751,580.162903 26.403996,580.196228 25.473270,580.180847 
	C19.269272,580.088867 13.526245,580.095581 7.785630,579.981262 
	C4.900469,579.923889 3.452836,581.091553 3.691870,584.061584 
	C3.018996,584.041809 2.346122,584.022034 1.336624,584.001099 
	C1.000000,576.645752 1.000000,569.291504 1.000000,561.468628 
z"/>
<path fill="#C1D9BD" opacity="1.000000" stroke="none" 
	d="
M40.000000,1075.000000 
	C27.038807,1075.000000 14.077613,1075.000000 1.000000,1075.000000 
	C1.000000,1039.312500 1.000000,1003.624939 1.373734,967.429871 
	C9.359454,971.461182 18.028294,972.040649 26.450470,973.585876 
	C28.346657,973.933777 30.460571,974.370239 31.943604,975.476990 
	C38.888664,980.659851 43.351997,986.990540 40.339760,996.288818 
	C40.043297,997.203918 40.158276,998.266235 40.155991,999.260437 
	C40.098000,1024.506958 40.049862,1049.753540 40.000000,1075.000000 
z"/>
<path fill="#FBFCFB" opacity="1.000000" stroke="none" 
	d="
M1.000000,27.466862 
	C6.893777,35.227158 12.718473,43.505447 18.739168,51.638657 
	C19.954527,53.280449 21.746820,55.234032 23.553949,55.580929 
	C36.906433,58.144077 50.110584,61.766266 63.959946,60.950165 
	C74.574493,60.324680 85.252243,60.667908 95.849556,59.878204 
	C111.500511,58.711910 125.971436,64.426117 141.025757,66.658104 
	C154.081573,68.593788 159.952332,78.605164 163.170486,88.469177 
	C166.111420,97.483551 164.240097,108.144249 164.066986,118.072052 
	C163.947067,124.950317 160.635132,130.698318 156.601318,136.183472 
	C153.161667,140.860672 151.184555,146.911316 147.046356,150.701111 
	C141.939468,155.378036 139.508636,161.047775 137.393646,167.056534 
	C136.108337,170.708084 135.152405,174.733353 135.238541,178.563965 
	C135.563492,193.012543 136.976669,207.456543 136.823166,221.889923 
	C136.691071,234.310349 134.980103,246.713974 133.573975,259.560669 
	C132.467590,259.998749 131.754486,260.001190 131.041382,260.003601 
	C131.679428,252.075684 132.654144,244.157181 132.875702,236.217636 
	C133.198837,224.637833 133.113327,213.041046 132.950592,201.455032 
	C132.822479,192.333389 132.799377,183.162262 131.777512,174.120728 
	C131.239792,169.363037 128.686752,164.826660 126.989700,160.210220 
	C126.449028,158.739471 125.734383,157.332687 125.099350,155.896637 
	C125.649651,155.551376 126.199951,155.206116 126.750252,154.860855 
	C128.713562,158.268021 130.676865,161.675201 132.640182,165.082382 
	C133.206421,165.136597 133.772659,165.190826 134.338882,165.245041 
	C135.921738,161.073578 137.504593,156.902130 139.313721,152.062866 
	C139.628586,150.474167 139.717194,149.553268 139.805817,148.632385 
	C143.531296,142.191360 146.886719,135.497787 151.069565,129.368912 
	C157.238907,120.329384 156.994507,110.432762 156.712875,100.200798 
	C156.498566,92.414658 153.430481,86.252510 148.899963,80.280869 
	C144.498260,74.479004 137.768250,74.967209 131.886642,73.147903 
	C112.995384,67.304428 93.488899,66.579918 74.111320,68.272141 
	C56.234676,69.833298 39.035679,67.290955 21.742382,63.863899 
	C17.776318,63.077930 14.802317,61.352711 12.510650,57.835190 
	C9.179498,52.722145 5.323586,47.950981 1.345724,43.017014 
	C1.000000,37.977909 1.000000,32.955814 1.000000,27.466862 
z"/>
<path fill="#BFD8BF" opacity="1.000000" stroke="none" 
	d="
M1.000000,801.468628 
	C6.654069,806.992859 9.795175,813.939636 10.395499,822.313904 
	C11.247754,834.202454 13.304842,846.024109 13.746103,857.915161 
	C13.994732,864.615173 11.469684,871.373047 11.180431,878.146973 
	C10.492702,894.252930 10.331559,910.383240 10.144631,926.505859 
	C10.125337,928.169922 11.108645,930.014526 12.063133,931.493713 
	C18.652637,941.705994 25.256794,951.912781 32.123585,961.938232 
	C33.301132,963.657471 35.609375,964.902161 37.656719,965.656799 
	C40.908676,966.855469 44.380810,967.456787 47.574959,968.637573 
	C37.208027,969.857178 27.126314,970.360474 16.905348,968.302307 
	C9.586888,966.828674 3.715611,964.430603 1.000000,957.000000 
	C1.000000,905.312439 1.000000,853.624878 1.000000,801.468628 
z"/>
<path fill="#FBFCFB" opacity="1.000000" stroke="none" 
	d="
M71.936073,459.301605 
	C68.015343,455.787903 63.452148,452.765381 60.310631,448.656006 
	C54.198479,440.660797 45.196426,438.529205 36.645409,435.122467 
	C25.388939,430.637848 13.723987,430.517426 1.468480,430.986115 
	C1.000000,430.250000 1.000000,429.500000 1.000000,428.375000 
	C5.775786,427.723907 10.554277,427.202179 15.326447,427.254730 
	C18.727715,427.292175 22.242687,427.686646 25.494429,428.643738 
	C35.777924,431.670563 45.961536,435.036774 56.660778,438.575348 
	C57.737888,438.967865 58.338009,439.056702 58.938126,439.145569 
	C69.689827,439.461823 80.454773,440.193420 91.185463,439.851074 
	C94.577789,439.742859 97.878502,436.763458 101.779495,435.209015 
	C102.567101,435.912231 102.796349,436.504517 102.780197,437.324158 
	C96.681091,442.398102 97.972816,446.144958 107.341301,449.682343 
	C108.099930,445.268646 108.969788,440.991455 109.450470,436.670929 
	C109.534538,435.915314 107.982338,434.977692 106.944885,433.914124 
	C106.461998,433.122070 106.220062,432.540039 105.978134,431.958008 
	C114.028206,427.001129 114.080513,418.028656 115.532570,410.466736 
	C118.304977,396.028748 119.472557,381.279877 121.223633,366.650177 
	C121.734489,362.382080 121.965363,358.080475 122.734497,353.410492 
	C124.025085,353.027649 124.905746,353.028564 125.786392,353.029480 
	C125.757408,354.090393 125.728416,355.151306 125.403664,356.679474 
	C125.055122,357.757477 125.002350,358.368195 124.949570,358.978943 
	C124.868004,361.359192 124.786438,363.739410 124.405296,366.634155 
	C124.057220,367.760284 124.008728,368.371887 123.960228,368.983521 
	C122.803108,387.210846 121.188583,405.344147 115.954651,422.998718 
	C113.995193,429.608185 113.051720,436.518829 111.379608,443.718384 
	C111.056938,444.755096 110.999672,445.365601 110.942413,445.976074 
	C110.194778,451.413147 109.447151,456.850250 108.410728,462.715027 
	C108.063332,463.754303 108.004723,464.365906 107.946106,464.977509 
	C107.862282,466.761078 107.778458,468.544678 107.410248,470.735291 
	C107.065483,471.753845 107.005096,472.365356 106.944710,472.976898 
	C106.875916,474.375824 106.807114,475.774780 106.427261,477.659637 
	C106.062660,478.757538 106.009117,479.369507 105.955582,479.981476 
	C105.872154,481.690552 105.788727,483.399628 105.267403,485.544189 
	C104.128273,486.001648 103.427055,486.023590 102.756165,485.619629 
	C103.355789,479.466461 103.925087,473.739258 104.702202,467.931366 
	C104.962227,467.242798 105.014435,466.634857 105.075409,465.691956 
	C105.218773,463.575409 105.353355,461.793854 105.696472,459.932129 
	C105.959282,459.243805 106.013573,458.635681 106.045441,457.639221 
	C105.202621,452.938599 95.893936,444.158203 91.489037,443.921112 
	C83.208092,443.475403 74.913589,443.276306 66.623703,443.006134 
	C64.604202,442.940338 62.580734,442.996368 59.362934,442.996368 
	C64.376213,448.324402 68.295723,452.489990 72.160202,457.094208 
	C72.048805,458.122437 71.992439,458.712036 71.936073,459.301605 
z"/>
<path fill="#BED8C2" opacity="1.000000" stroke="none" 
	d="
M52.065372,972.905334 
	C51.662163,1006.627380 51.258953,1040.349365 50.927872,1074.535645 
	C48.629444,1075.000000 46.258884,1075.000000 43.454865,1074.531494 
	C43.318211,1061.954956 43.778152,1049.848389 43.874973,1037.738770 
	C44.034382,1017.800232 44.059799,997.859131 43.897717,977.921021 
	C43.864967,973.892761 45.244972,972.443665 49.076706,972.897583 
	C50.059437,973.014038 51.068439,972.908752 52.065372,972.905334 
z"/>
<path fill="#F3F8F5" opacity="1.000000" stroke="none" 
	d="
M52.279770,972.834717 
	C51.068439,972.908752 50.059437,973.014038 49.076706,972.897583 
	C45.244972,972.443665 43.864967,973.892761 43.897717,977.921021 
	C44.059799,997.859131 44.034382,1017.800232 43.874973,1037.738770 
	C43.778152,1049.848389 43.318211,1061.954956 43.010696,1074.531494 
	C42.250000,1075.000000 41.500000,1075.000000 40.375000,1075.000000 
	C40.049862,1049.753540 40.098000,1024.506958 40.155991,999.260437 
	C40.158276,998.266235 40.043297,997.203918 40.339760,996.288818 
	C43.351997,986.990540 38.888664,980.659851 31.943604,975.476990 
	C30.460571,974.370239 28.346657,973.933777 26.450470,973.585876 
	C18.028294,972.040649 9.359454,971.461182 1.373734,966.961182 
	C1.000000,963.969421 1.000000,960.938782 1.000000,957.454102 
	C3.715611,964.430603 9.586888,966.828674 16.905348,968.302307 
	C27.126314,970.360474 37.208027,969.857178 47.871159,968.877014 
	C49.338753,968.893921 50.325291,968.998108 52.024334,969.390503 
	C60.165493,969.853149 67.594154,970.027527 75.020706,970.487915 
	C75.016281,971.155579 75.013969,971.537048 74.542358,971.940491 
	C67.022911,972.182190 59.972755,972.401917 52.922604,972.621643 
	C52.922604,972.621643 52.494167,972.764038 52.279770,972.834717 
z"/>
<path fill="#FAFCFA" opacity="1.000000" stroke="none" 
	d="
M1.000000,148.444168 
	C14.936816,148.010345 28.873634,148.019257 42.810444,148.033371 
	C44.137531,148.034714 45.699654,147.631561 46.736568,148.189499 
	C48.293137,149.027023 49.481426,150.548981 50.826317,151.779938 
	C49.462852,153.155777 48.282501,155.383896 46.696632,155.724609 
	C43.679855,156.372787 40.431301,155.950699 37.278961,155.957764 
	C25.498320,155.984161 13.717663,156.004395 1.468506,156.013489 
	C1.000000,153.629440 1.000000,151.258896 1.000000,148.444168 
z"/>
<path fill="#FBFCFB" opacity="1.000000" stroke="none" 
	d="
M27.806293,670.175171 
	C17.344175,663.012268 11.887279,651.921875 5.342670,641.668945 
	C4.431158,640.240967 2.945817,639.179321 1.363063,637.973999 
	C1.000000,635.299988 1.000000,632.599976 0.999995,629.449951 
	C5.364635,635.789917 10.420980,642.247986 13.886195,649.469482 
	C16.937878,655.829163 21.938015,658.354675 27.722397,661.145874 
	C34.466793,664.400391 40.581932,668.958984 47.040165,673.659424 
	C47.072510,674.918640 47.034809,675.470093 46.687000,675.876221 
	C44.342625,674.382446 42.365917,672.935303 40.261745,671.706421 
	C36.246399,669.361389 32.158375,667.140747 27.959747,664.717896 
	C27.546415,664.522827 27.273855,664.478394 27.001301,664.433960 
	C27.278505,664.683594 27.555704,664.933228 27.888023,665.477661 
	C28.316929,666.477783 28.690712,667.183167 28.994450,668.216431 
	C28.551701,669.088013 28.178999,669.631592 27.806293,670.175171 
z"/>
<path fill="#FBFCFB" opacity="1.000000" stroke="none" 
	d="
M75.011658,971.918579 
	C75.013969,971.537048 75.016281,971.155579 75.278488,970.389282 
	C75.705482,969.927856 75.872581,969.851318 76.039688,969.774780 
	C83.469933,969.806946 90.900177,969.839111 98.859352,969.895325 
	C99.388283,969.919373 99.783951,969.879272 99.783951,969.879272 
	C100.873566,969.877380 101.963181,969.875488 103.457993,969.811707 
	C108.057571,969.553284 112.251968,969.356750 116.582603,969.153870 
	C114.884285,960.111023 113.394760,952.179871 111.946434,943.870300 
	C112.948044,944.575317 114.406693,945.509277 114.784454,946.767639 
	C116.628181,952.909729 118.183319,959.138428 119.965866,965.963867 
	C120.728409,966.555603 121.365646,966.519958 122.002869,966.484375 
	C132.863632,963.036316 143.715042,959.558350 154.591263,956.159851 
	C157.556015,955.233459 157.263290,953.272644 156.552399,951.034424 
	C154.247360,943.777039 151.880554,936.538025 149.684662,929.247681 
	C148.592804,925.622620 147.821793,921.901001 146.946869,917.855713 
	C148.298889,919.157166 150.185867,920.631287 150.825943,922.526550 
	C154.660156,933.880188 157.656784,945.544373 161.984985,956.696655 
	C167.910141,971.963684 173.238297,987.589355 183.078644,1001.047852 
	C186.714157,1006.020142 186.830673,1011.380127 183.193344,1015.935547 
	C181.946960,1016.040527 181.378922,1016.003052 180.903793,1015.618408 
	C181.487305,1014.178223 181.977875,1013.085205 182.740341,1011.851318 
	C182.824982,1010.142273 182.637741,1008.574219 182.335663,1006.648926 
	C182.116730,1005.976135 182.083267,1005.609802 181.898453,1005.351990 
	C172.045990,991.604980 165.959427,976.083923 160.413895,960.278076 
	C160.119629,959.439331 157.656616,958.588135 156.563446,958.921997 
	C144.882263,962.490051 133.273834,966.296204 121.583473,970.056946 
	C121.556992,970.596924 121.391014,971.123474 121.530724,971.549805 
	C125.149971,982.594727 128.566086,993.714783 132.544846,1004.629578 
	C134.560989,1010.160461 137.602692,1015.317566 140.130005,1021.058899 
	C140.047653,1022.029541 140.016052,1022.584961 139.984467,1023.140320 
	C133.860733,1021.669495 132.865295,1016.128052 131.193100,1011.463684 
	C127.005821,999.784180 123.134483,987.988037 119.339455,976.173462 
	C118.277290,972.866882 116.971954,971.571960 113.275635,972.659424 
	C110.661972,973.428467 107.694435,972.994812 104.436935,973.152222 
	C102.571938,973.135071 101.154884,973.063721 98.984596,972.674805 
	C90.801048,972.252441 83.370750,972.147705 75.705795,972.030151 
	C75.471138,972.017334 75.011650,971.918579 75.011658,971.918579 
z"/>
<path fill="#F5F8F4" opacity="1.000000" stroke="none" 
	d="
M75.940445,972.042969 
	C83.370750,972.147705 90.801048,972.252441 98.575729,972.565796 
	C91.586731,972.808289 84.253365,972.842224 76.450378,972.646362 
	C75.980759,972.416443 75.940445,972.042908 75.940445,972.042969 
z"/>
<path fill="#BED8C2" opacity="1.000000" stroke="none" 
	d="
M75.705795,972.030151 
	C75.940445,972.042908 75.980759,972.416443 75.982719,972.603821 
	C68.609314,972.797241 61.233944,972.803284 53.390591,972.715454 
	C59.972755,972.401917 67.022911,972.182190 74.542358,971.940491 
	C75.011650,971.918579 75.471138,972.017334 75.705795,972.030151 
z"/>
<path fill="#FBFCFB" opacity="1.000000" stroke="none" 
	d="
M131.940918,280.975922 
	C131.825409,283.733765 131.709900,286.491638 131.303696,289.711792 
	C130.988770,290.774536 130.964523,291.374939 130.940277,291.975372 
	C130.857315,294.727692 130.774353,297.480011 130.397232,300.689941 
	C130.049805,301.757141 129.996536,302.366760 129.943268,302.976379 
	C129.858261,305.738983 129.773254,308.501587 129.364288,311.737030 
	C129.006836,313.131317 128.973343,314.052765 128.939865,314.974213 
	C128.856400,317.408142 128.772934,319.842041 128.366486,322.742432 
	C128.009308,324.130798 127.975075,325.052704 127.940849,325.974609 
	C127.863075,328.392151 127.785294,330.809692 127.298431,333.600281 
	C126.004433,333.971619 125.119522,333.969849 124.234604,333.968079 
	C124.257782,332.908539 124.280952,331.848969 124.596336,330.322174 
	C124.946861,329.245453 125.005180,328.635986 125.063492,328.026489 
	C125.142647,325.263123 125.221802,322.499786 125.626839,319.264587 
	C125.988144,317.870239 126.023567,316.947723 126.058990,316.025238 
	C126.141815,313.589233 126.224640,311.153198 126.645981,308.231873 
	C127.023743,306.512817 127.062981,305.279053 127.102211,304.045319 
	C127.169945,301.612640 127.237671,299.179932 127.629555,296.270386 
	C127.999504,294.875366 128.045288,293.957245 128.091080,293.039124 
	C128.160736,290.608582 128.230408,288.178040 128.625259,285.269836 
	C128.983658,283.868591 129.016861,282.945007 129.050079,282.021393 
	C129.154785,279.307159 129.259491,276.592896 129.664459,273.355255 
	C129.991028,272.227264 130.017349,271.622650 130.043671,271.018066 
	C130.155411,268.322449 130.267151,265.626831 130.801544,262.479584 
	C132.073959,262.028778 132.923721,262.029572 133.773468,262.030396 
	C133.378128,267.423828 132.982788,272.817261 132.293427,278.694916 
	C131.979919,279.778076 131.960419,280.376984 131.940918,280.975922 
z"/>
<path fill="#FBFCFB" opacity="1.000000" stroke="none" 
	d="
M126.771255,342.031433 
	C126.748131,343.093811 126.724998,344.156189 126.375656,345.712830 
	C126.012665,347.129364 125.975876,348.051605 125.939095,348.973846 
	C125.936592,349.418579 125.934090,349.863312 125.600677,350.600342 
	C124.534088,350.601227 123.798416,350.309845 123.062744,350.018463 
	C123.144768,347.603119 123.226791,345.187805 123.718414,342.399384 
	C125.009102,342.028015 125.890182,342.029724 126.771255,342.031433 
z"/>
<path fill="#F5F8F4" opacity="1.000000" stroke="none" 
	d="
M103.025597,437.096771 
	C102.796349,436.504517 102.567101,435.912231 102.100754,435.096436 
	C103.038170,433.985199 104.212669,433.097473 105.682648,432.083862 
	C106.220062,432.540039 106.461998,433.122070 106.746292,434.168701 
	C105.534302,435.454468 104.279953,436.275604 103.025597,437.096771 
z"/>
<path fill="#F5F8F4" opacity="1.000000" stroke="none" 
	d="
M122.849243,350.266602 
	C123.798416,350.309845 124.534088,350.601227 125.561447,350.931793 
	C125.871902,351.430145 125.890663,351.889374 125.847916,352.689026 
	C124.905746,353.028564 124.025085,353.027649 122.824867,353.043793 
	C122.548790,352.212158 122.592278,351.363434 122.849243,350.266602 
z"/>
<path fill="#F5F8F4" opacity="1.000000" stroke="none" 
	d="
M126.829018,341.690613 
	C125.890182,342.029724 125.009102,342.028015 123.807510,342.042725 
	C123.534607,341.212524 123.582214,340.365936 124.114670,339.396240 
	C125.346771,339.505707 126.094017,339.738312 126.841278,339.970886 
	C126.856438,340.430511 126.871605,340.890137 126.829018,341.690613 
z"/>
<path fill="#FBFCFB" opacity="1.000000" stroke="none" 
	d="
M126.894630,339.600098 
	C126.094017,339.738312 125.346771,339.505707 124.328888,339.150085 
	C124.060707,338.276642 124.063148,337.526215 124.403137,336.442413 
	C125.473740,336.400024 126.206810,336.691071 126.939873,336.982086 
	C126.942581,337.731171 126.945282,338.480225 126.894630,339.600098 
z"/>
<path fill="#F5F8F4" opacity="1.000000" stroke="none" 
	d="
M127.158325,336.737671 
	C126.206810,336.691071 125.473740,336.400024 124.450089,336.070068 
	C124.141884,335.570770 124.124260,335.110382 124.170616,334.309052 
	C125.119522,333.969849 126.004433,333.971619 127.211502,333.957886 
	C127.481354,334.792694 127.429070,335.643005 127.158325,336.737671 
z"/>
<path fill="#F5F8F4" opacity="1.000000" stroke="none" 
	d="
M126.877335,304.312195 
	C127.062981,305.279053 127.023743,306.512817 126.729431,307.869690 
	C126.533722,306.854889 126.593086,305.716980 126.877335,304.312195 
z"/>
<path fill="#F5F8F4" opacity="1.000000" stroke="none" 
	d="
M133.837112,261.692627 
	C132.923721,262.029572 132.073959,262.028778 130.920197,262.048096 
	C130.629272,261.521851 130.642365,260.975464 130.848419,260.216370 
	C131.754486,260.001190 132.467590,259.998749 133.535919,259.990143 
	C133.894363,260.440918 133.897552,260.897919 133.837112,261.692627 
z"/>
<path fill="#F5F8F4" opacity="1.000000" stroke="none" 
	d="
M125.843224,316.265381 
	C126.023567,316.947723 125.988144,317.870239 125.712334,318.896759 
	C125.523781,318.169037 125.575615,317.337280 125.843224,316.265381 
z"/>
<path fill="#F5F8F4" opacity="1.000000" stroke="none" 
	d="
M127.875992,293.279175 
	C128.045288,293.957245 127.999504,294.875366 127.715103,295.897003 
	C127.537964,295.173431 127.599434,294.346344 127.875992,293.279175 
z"/>
<path fill="#F5F8F4" opacity="1.000000" stroke="none" 
	d="
M139.548386,148.794556 
	C139.717194,149.553268 139.628586,150.474167 139.331879,151.669525 
	C139.179520,150.948242 139.235245,149.952484 139.548386,148.794556 
z"/>
<path fill="#F5F8F4" opacity="1.000000" stroke="none" 
	d="
M128.835037,282.262573 
	C129.016861,282.945007 128.983658,283.868591 128.709686,284.896454 
	C128.519287,284.168365 128.569641,283.336060 128.835037,282.262573 
z"/>
<path fill="#F5F8F4" opacity="1.000000" stroke="none" 
	d="
M129.851028,271.219788 
	C130.017349,271.622650 129.991028,272.227264 129.770676,272.916382 
	C129.603897,272.474457 129.631134,271.947968 129.851028,271.219788 
z"/>
<path fill="#F5F8F4" opacity="1.000000" stroke="none" 
	d="
M124.865952,328.224182 
	C125.005180,328.635986 124.946861,329.245453 124.681664,329.932831 
	C124.539322,329.481110 124.603859,328.951508 124.865952,328.224182 
z"/>
<path fill="#F5F8F4" opacity="1.000000" stroke="none" 
	d="
M58.754215,438.933350 
	C58.338009,439.056702 57.737888,438.967865 57.063084,438.674774 
	C57.515701,438.554077 58.043003,438.637634 58.754215,438.933350 
z"/>
<path fill="#C2DABE" opacity="1.000000" stroke="none" 
	d="
M182.468460,1011.992188 
	C181.977875,1013.085205 181.487305,1014.178223 180.624817,1015.785278 
	C177.504837,1017.886353 174.756760,1019.473389 171.628174,1021.059448 
	C170.502441,1021.199158 169.757248,1021.339966 168.740585,1021.414062 
	C167.987381,1021.583313 167.505630,1021.819153 166.641632,1022.049927 
	C165.005554,1022.698669 163.751740,1023.352539 162.497925,1024.006470 
	C162.497925,1024.006470 162.169525,1024.007568 162.169525,1024.007568 
	C162.169525,1024.007568 161.841141,1024.004395 161.364807,1023.789246 
	C158.919159,1023.730469 156.949829,1023.886841 154.690796,1023.818604 
	C152.937485,1023.550720 151.473907,1023.507385 149.576141,1023.373840 
	C147.938019,1023.177856 146.734100,1023.072083 145.530167,1022.966309 
	C145.019028,1022.979004 144.507889,1022.991760 143.600464,1022.671753 
	C142.196381,1021.773926 141.188553,1021.208801 140.180740,1020.643616 
	C137.602692,1015.317566 134.560989,1010.160461 132.544846,1004.629578 
	C128.566086,993.714783 125.149971,982.594727 121.530724,971.549805 
	C121.391014,971.123474 121.556992,970.596924 121.583473,970.056946 
	C133.273834,966.296204 144.882263,962.490051 156.563446,958.921997 
	C157.656616,958.588135 160.119629,959.439331 160.413895,960.278076 
	C165.959427,976.083923 172.045990,991.604980 181.898453,1005.351990 
	C182.083267,1005.609802 182.116730,1005.976135 182.235992,1007.057495 
	C182.323578,1009.212830 182.396027,1010.602539 182.468460,1011.992188 
z"/>
<path fill="#FBFCFB" opacity="1.000000" stroke="none" 
	d="
M128.462982,809.987305 
	C128.333008,807.880493 128.203033,805.773682 128.226654,803.151001 
	C128.077728,802.086060 127.775215,801.536926 127.472717,800.987732 
	C127.342056,798.880493 127.211388,796.773193 127.231209,794.149414 
	C127.076134,793.084229 126.770569,792.535645 126.465012,791.987061 
	C126.337128,789.879578 126.209229,787.772156 126.232483,785.148987 
	C126.082634,784.084839 125.781639,783.536377 125.480637,782.987915 
	C125.348000,780.880249 125.215378,778.772583 125.233292,776.148621 
	C125.081093,775.083923 124.778366,774.535583 124.475639,773.987183 
	C124.344650,771.878845 124.213654,769.770508 124.235199,767.145996 
	C124.085823,766.082397 123.783913,765.535034 123.482010,764.987671 
	C123.348213,762.880188 123.214409,760.772644 123.231369,758.150024 
	C123.087425,757.086121 122.792717,756.537354 122.498016,755.988647 
	C120.038742,733.919128 117.294830,711.875793 115.255913,689.767517 
	C114.403076,680.520020 115.351227,671.120605 114.927437,661.815491 
	C114.475082,651.882996 113.353767,641.981628 112.565300,632.063354 
	C112.436317,630.440857 112.517975,628.801575 112.750458,626.832397 
	C117.866646,629.597229 116.360069,634.948364 116.752625,639.162048 
	C117.746056,649.825745 117.368881,660.608826 118.039215,671.312866 
	C118.981422,686.358459 120.314285,701.380859 121.599579,716.403015 
	C122.249382,723.997620 123.161751,731.569885 123.749123,739.799683 
	C123.872345,741.299377 124.201851,742.151611 124.531342,743.003784 
	C124.682076,745.048828 124.832817,747.093933 124.803802,749.750732 
	C124.927284,750.912476 125.230522,751.462463 125.533768,752.012512 
	C125.666878,754.117920 125.799980,756.223389 125.780037,758.844360 
	C125.929749,759.910889 126.232513,760.461731 126.535278,761.012634 
	C126.663406,763.120605 126.791527,765.228577 126.766846,767.853394 
	C126.921425,768.917786 127.228806,769.465332 127.536194,770.012939 
	C127.664757,772.119751 127.793320,774.226501 127.770630,776.849182 
	C127.921280,777.914246 128.223206,778.463379 128.525116,779.012573 
	C128.658478,781.119751 128.791870,783.226868 128.771851,785.849915 
	C128.920853,786.914734 129.223267,787.463684 129.525696,788.012634 
	C129.657471,790.119873 129.789246,792.227051 129.769684,794.849792 
	C129.917603,795.914246 130.216873,796.463257 130.516129,797.012207 
	C130.650253,799.120605 130.784363,801.229004 130.765808,803.853638 
	C130.913681,804.917236 131.214218,805.464722 131.514740,806.012146 
	C134.676910,833.049133 137.825470,860.087769 141.022995,887.120605 
	C141.331512,889.728882 141.943787,892.301270 142.211578,895.197815 
	C140.881271,894.100647 139.011063,892.821777 138.748734,891.270935 
	C137.094299,881.490356 135.626587,871.670227 134.422928,861.823303 
	C132.797165,848.523193 131.465012,835.187195 130.190216,821.252930 
	C130.072556,820.088745 129.771545,819.538208 129.470551,818.987671 
	C129.319992,816.944824 129.169449,814.901917 129.198273,812.247375 
	C129.072769,811.086243 128.767883,810.536743 128.462982,809.987305 
z"/>
<path fill="#FBFCFB" opacity="1.000000" stroke="none" 
	d="
M55.976612,581.051208 
	C63.834263,581.734009 69.424164,577.389832 73.602348,571.766296 
	C81.790779,560.745300 89.338417,549.245667 97.044319,537.871643 
	C98.017799,536.434753 98.779060,534.592834 98.900764,532.885925 
	C99.396080,525.939331 99.415680,518.957336 99.963844,512.016296 
	C100.711906,502.544128 96.635208,494.188446 94.180328,485.466644 
	C93.308838,482.370361 91.698776,479.482025 90.273422,475.949493 
	C90.497124,474.885376 90.873283,474.370514 91.575569,473.966980 
	C92.968315,475.461121 94.431618,476.692535 95.027969,478.254852 
	C96.896713,483.150604 98.438698,488.171082 100.107277,493.143219 
	C100.420105,493.139160 100.732933,493.135132 101.045761,493.131073 
	C101.398285,491.425995 101.750816,489.720886 102.460434,488.010803 
	C103.531052,488.002563 104.244583,487.999268 104.958107,487.995972 
	C104.055595,500.376282 102.305794,512.768860 102.485878,525.133423 
	C102.670647,537.819763 104.742317,550.478577 105.608772,563.575806 
	C104.505402,563.998352 103.781456,563.994568 103.057503,563.990845 
	C102.032585,556.960144 101.007660,549.929504 99.918182,542.335083 
	C99.632805,541.532227 99.383865,541.506226 99.106804,541.693298 
	C92.387108,551.078613 85.444107,560.314026 79.011742,569.892334 
	C72.823997,579.106384 65.397072,585.453979 53.450054,583.996826 
	C51.649879,583.777283 49.806404,583.912720 47.654255,583.506348 
	C50.209240,582.436218 53.092926,581.743713 55.976612,581.051208 
z"/>
<path fill="#FBFCFB" opacity="1.000000" stroke="none" 
	d="
M103.503075,569.005798 
	C103.399590,568.264404 103.296097,567.522949 103.566315,566.397949 
	C104.658707,566.013306 105.377388,566.012329 106.096069,566.011292 
	C106.126076,566.689636 106.156090,567.367920 106.129272,568.760071 
	C106.559204,570.646423 107.045959,571.819031 107.532722,572.991577 
	C107.683311,574.386475 107.833900,575.781433 107.804718,577.768799 
	C107.927452,578.911682 108.229965,579.462158 108.532471,580.012573 
	C108.680267,581.403748 108.828072,582.794861 108.795135,584.777954 
	C108.922508,585.917603 109.230621,586.465332 109.538742,587.013000 
	C109.684593,588.403198 109.830444,589.793396 109.797546,591.774963 
	C109.923782,592.915100 110.228767,593.463928 110.533745,594.012695 
	C110.680397,595.403320 110.827049,596.793884 110.794868,598.776367 
	C110.919479,599.916321 111.222916,600.464478 111.526344,601.012634 
	C111.675766,602.402649 111.825195,603.792725 111.796898,605.773682 
	C111.916145,606.913635 112.213120,607.462646 112.510101,608.011597 
	C112.664948,609.401489 112.819786,610.791321 112.797806,612.772095 
	C112.914894,613.912354 113.208801,614.461792 113.502701,615.011230 
	C113.557167,618.430908 113.611618,621.850525 113.334503,625.384033 
	C112.084595,622.213196 110.890305,618.976807 110.305367,615.633728 
	C109.087891,608.675720 108.193008,601.661255 107.361198,594.051575 
	C107.193947,592.289551 106.831055,591.145935 106.468170,590.002319 
	C106.367729,589.233276 106.267281,588.464294 106.360847,587.065308 
	C106.200211,585.291809 105.845543,584.148193 105.490875,583.004578 
	C105.384514,582.234497 105.278168,581.464417 105.365036,580.063538 
	C105.204285,578.290161 104.850311,577.147522 104.496338,576.004944 
	C104.388794,575.235291 104.281250,574.465637 104.365067,573.065186 
	C104.205315,571.291504 103.854195,570.148621 103.503075,569.005798 
z"/>
<path fill="#FBFCFB" opacity="1.000000" stroke="none" 
	d="
M145.594421,1023.354248 
	C146.734100,1023.072083 147.938019,1023.177856 149.714020,1023.643311 
	C151.850891,1024.016357 153.415695,1024.029785 154.980515,1024.043213 
	C156.949829,1023.886841 158.919159,1023.730469 161.200653,1023.785461 
	C160.561523,1024.965210 159.671509,1026.682983 158.647827,1026.766724 
	C155.019028,1027.063599 151.328293,1026.970337 147.700623,1026.617676 
	C146.934036,1026.543091 146.334930,1024.745728 145.594421,1023.354248 
z"/>
<path fill="#FBFCFB" opacity="1.000000" stroke="none" 
	d="
M147.251434,916.294678 
	C145.486282,911.692383 143.967422,906.880859 142.724442,901.781860 
	C144.499466,906.358032 145.998596,911.221680 147.251434,916.294678 
z"/>
<path fill="#F5F8F4" opacity="1.000000" stroke="none" 
	d="
M172.008698,1021.060425 
	C174.756760,1019.473389 177.504837,1017.886353 180.531891,1016.132446 
	C181.378922,1016.003052 181.946960,1016.040527 182.942276,1016.132141 
	C182.163681,1021.179626 177.542526,1021.528259 173.364655,1022.920349 
	C172.574356,1022.134033 172.291534,1021.597229 172.008698,1021.060425 
z"/>
<path fill="#FBFCFB" opacity="1.000000" stroke="none" 
	d="
M171.628174,1021.059448 
	C172.291534,1021.597229 172.574356,1022.134033 172.993881,1022.948975 
	C169.679581,1023.716858 166.228592,1024.206543 162.637756,1024.351318 
	C163.751740,1023.352539 165.005554,1022.698669 166.811310,1022.211792 
	C167.912842,1022.079468 168.462448,1021.780151 169.012054,1021.480713 
	C169.757248,1021.339966 170.502441,1021.199158 171.628174,1021.059448 
z"/>
<path fill="#FBFCFB" opacity="1.000000" stroke="none" 
	d="
M143.216629,900.219360 
	C141.220367,899.781128 139.173599,899.167175 141.675659,896.604858 
	C142.477509,897.644104 142.951370,898.787292 143.216629,900.219360 
z"/>
<path fill="#F5F8F4" opacity="1.000000" stroke="none" 
	d="
M140.129990,1021.058899 
	C141.188553,1021.208801 142.196381,1021.773926 143.344803,1022.670654 
	C142.487579,1023.191833 141.489761,1023.381287 140.238205,1023.355530 
	C140.016052,1022.584961 140.047653,1022.029541 140.129990,1021.058899 
z"/>
<path fill="#F5F8F4" opacity="1.000000" stroke="none" 
	d="
M106.244263,565.828491 
	C105.377388,566.012329 104.658707,566.013306 103.585892,566.022827 
	C103.166237,565.579529 103.100708,565.127808 103.046341,564.333435 
	C103.781456,563.994568 104.505402,563.998352 105.591202,564.003418 
	C106.099518,564.551697 106.245987,565.098694 106.244263,565.828491 
z"/>
<path fill="#F5F8F4" opacity="1.000000" stroke="none" 
	d="
M105.152481,487.787354 
	C104.244583,487.999268 103.531052,488.002563 102.497543,487.752258 
	C102.360321,487.014282 102.543076,486.529907 102.725830,486.045532 
	C103.427055,486.023590 104.128273,486.001648 105.169380,485.960205 
	C105.455124,486.486694 105.400986,487.032684 105.152481,487.787354 
z"/>
<path fill="#F5F8F4" opacity="1.000000" stroke="none" 
	d="
M128.156616,325.734222 
	C127.975075,325.052704 128.009308,324.130798 128.283081,323.104248 
	C128.472565,323.831024 128.422470,324.662445 128.156616,325.734222 
z"/>
<path fill="#F5F8F4" opacity="1.000000" stroke="none" 
	d="
M107.592918,572.670044 
	C107.045959,571.819031 106.559204,570.646423 106.110596,569.099182 
	C106.650200,569.932495 107.151657,571.140503 107.592918,572.670044 
z"/>
<path fill="#F5F8F4" opacity="1.000000" stroke="none" 
	d="
M129.155518,314.733795 
	C128.973343,314.052765 129.006836,313.131317 129.279205,312.104889 
	C129.469131,312.831055 129.420151,313.662231 129.155518,314.733795 
z"/>
<path fill="#F5F8F4" opacity="1.000000" stroke="none" 
	d="
M126.155487,348.733917 
	C125.975876,348.051605 126.012665,347.129364 126.289856,346.103180 
	C126.477478,346.830811 126.424683,347.662415 126.155487,348.733917 
z"/>
<path fill="#F5F8F4" opacity="1.000000" stroke="none" 
	d="
M124.596687,742.698608 
	C124.201851,742.151611 123.872345,741.299377 123.730667,740.237549 
	C124.166336,740.816406 124.414177,741.604919 124.596687,742.698608 
z"/>
<path fill="#F5F8F4" opacity="1.000000" stroke="none" 
	d="
M130.583008,796.740723 
	C130.216873,796.463257 129.917603,795.914246 129.779175,795.195618 
	C130.176651,795.507019 130.413269,795.988159 130.583008,796.740723 
z"/>
<path fill="#F5F8F4" opacity="1.000000" stroke="none" 
	d="
M131.581024,805.741577 
	C131.214218,805.464722 130.913681,804.917236 130.772156,804.199707 
	C131.169876,804.510010 131.408600,804.990540 131.581024,805.741577 
z"/>
<path fill="#F5F8F4" opacity="1.000000" stroke="none" 
	d="
M132.133087,280.774658 
	C131.960419,280.376984 131.979919,279.778076 132.186371,279.092163 
	C132.357285,279.527924 132.341263,280.050659 132.133087,280.774658 
z"/>
<path fill="#F5F8F4" opacity="1.000000" stroke="none" 
	d="
M106.151321,479.782227 
	C106.009117,479.369507 106.062660,478.757538 106.324127,478.067566 
	C106.470390,478.520721 106.408730,479.051849 106.151321,479.782227 
z"/>
<path fill="#F5F8F4" opacity="1.000000" stroke="none" 
	d="
M107.141647,472.778198 
	C107.005096,472.365356 107.065483,471.753845 107.335175,471.065430 
	C107.475853,471.518890 107.407219,472.049194 107.141647,472.778198 
z"/>
<path fill="#F5F8F4" opacity="1.000000" stroke="none" 
	d="
M108.145615,464.781067 
	C108.004723,464.365906 108.063332,463.754303 108.330864,463.065735 
	C108.474892,463.520752 108.409996,464.052673 108.145615,464.781067 
z"/>
<path fill="#F5F8F4" opacity="1.000000" stroke="none" 
	d="
M111.140900,445.779114 
	C110.999672,445.365601 111.056938,444.755096 111.321609,444.066895 
	C111.465813,444.520203 111.402603,445.051178 111.140900,445.779114 
z"/>
<path fill="#F5F8F4" opacity="1.000000" stroke="none" 
	d="
M124.154167,368.782837 
	C124.008728,368.371887 124.057220,367.760284 124.312057,367.069580 
	C124.461639,367.521027 124.404877,368.051605 124.154167,368.782837 
z"/>
<path fill="#F5F8F4" opacity="1.000000" stroke="none" 
	d="
M125.146118,358.780518 
	C125.002350,358.368195 125.055122,357.757477 125.314331,357.068359 
	C125.461395,357.520691 125.402023,358.051422 125.146118,358.780518 
z"/>
<path fill="#F5F8F4" opacity="1.000000" stroke="none" 
	d="
M130.139740,302.778290 
	C129.996536,302.366760 130.049805,301.757141 130.308777,301.068787 
	C130.455078,301.520111 130.395645,302.050140 130.139740,302.778290 
z"/>
<path fill="#F5F8F4" opacity="1.000000" stroke="none" 
	d="
M113.570816,614.740967 
	C113.208801,614.461792 112.914894,613.912354 112.781693,613.193848 
	C113.174568,613.506775 113.406746,613.988770 113.570816,614.740967 
z"/>
<path fill="#F5F8F4" opacity="1.000000" stroke="none" 
	d="
M112.576958,607.740723 
	C112.213120,607.462646 111.916145,606.913635 111.779846,606.195190 
	C112.174957,606.507080 112.409386,606.988464 112.576958,607.740723 
z"/>
<path fill="#F5F8F4" opacity="1.000000" stroke="none" 
	d="
M111.590347,600.740601 
	C111.222916,600.464478 110.919479,599.916321 110.776459,599.197876 
	C111.176033,599.507874 111.415192,599.988281 111.590347,600.740601 
z"/>
<path fill="#F5F8F4" opacity="1.000000" stroke="none" 
	d="
M110.597168,593.739929 
	C110.228767,593.463928 109.923782,592.915100 109.780357,592.195801 
	C110.181473,592.505920 110.421036,592.986511 110.597168,593.739929 
z"/>
<path fill="#F5F8F4" opacity="1.000000" stroke="none" 
	d="
M109.601807,586.740356 
	C109.230621,586.465332 108.922508,585.917603 108.774979,585.199097 
	C109.178665,585.508057 109.421768,585.987915 109.601807,586.740356 
z"/>
<path fill="#F5F8F4" opacity="1.000000" stroke="none" 
	d="
M108.598129,579.740173 
	C108.229965,579.462158 107.927452,578.911682 107.787987,578.191284 
	C108.188614,578.503418 108.426201,578.985596 108.598129,579.740173 
z"/>
<path fill="#F5F8F4" opacity="1.000000" stroke="none" 
	d="
M125.598877,751.740356 
	C125.230522,751.462463 124.927284,750.912476 124.786674,750.192261 
	C125.187538,750.504150 125.425766,750.986145 125.598877,751.740356 
z"/>
<path fill="#F5F8F4" opacity="1.000000" stroke="none" 
	d="
M126.599655,760.740112 
	C126.232513,760.461731 125.929749,759.910889 125.790588,759.190002 
	C126.190804,759.502563 126.427414,759.985046 126.599655,760.740112 
z"/>
<path fill="#F5F8F4" opacity="1.000000" stroke="none" 
	d="
M127.599442,769.740356 
	C127.228806,769.465332 126.921425,768.917786 126.774452,768.199341 
	C127.177475,768.508240 127.420090,768.988037 127.599442,769.740356 
z"/>
<path fill="#F5F8F4" opacity="1.000000" stroke="none" 
	d="
M128.591797,778.740356 
	C128.223206,778.463379 127.921280,777.914246 127.780869,777.195068 
	C128.181061,777.506104 128.419754,777.987122 128.591797,778.740356 
z"/>
<path fill="#F5F8F4" opacity="1.000000" stroke="none" 
	d="
M129.591278,787.741089 
	C129.223267,787.463684 128.920853,786.914734 128.779617,786.195801 
	C129.179504,786.507019 129.418198,786.988281 129.591278,787.741089 
z"/>
<path fill="#F5F8F4" opacity="1.000000" stroke="none" 
	d="
M131.133606,291.774933 
	C130.964523,291.374939 130.988770,290.774536 131.202484,290.088318 
	C131.370270,290.526520 131.348602,291.050507 131.133606,291.774933 
z"/>
<path fill="#FBFCFB" opacity="1.000000" stroke="none" 
	d="
M107.189835,918.270264 
	C105.762085,916.492249 104.175400,914.608887 103.337234,912.436707 
	C99.185013,901.675964 99.584892,890.254333 99.153015,879.034180 
	C98.450142,860.773438 98.641617,842.476624 97.838432,824.222107 
	C97.424110,814.805725 95.654305,805.450745 94.561104,796.060547 
	C94.373657,794.450439 94.508995,792.802734 94.745117,790.835144 
	C96.310524,794.756653 98.521439,798.959656 98.790710,803.283630 
	C100.151886,825.140503 101.082664,847.025696 102.016693,868.907227 
	C102.721016,885.407227 102.921745,901.947205 107.189835,918.270264 
z"/>
<path fill="#FBFCFB" opacity="1.000000" stroke="none" 
	d="
M88.473221,747.987305 
	C88.342552,746.205322 88.211891,744.423340 88.233452,742.136230 
	C88.084175,741.083374 87.782677,740.535645 87.481171,739.987915 
	C85.229546,731.359253 83.969612,722.294495 77.109268,715.448853 
	C77.969803,715.030212 78.568909,714.970215 79.168015,714.910156 
	C83.535828,717.061157 85.745720,720.808899 86.847809,725.352539 
	C88.212975,730.980835 89.545403,736.617065 90.754974,742.807678 
	C90.917732,743.914246 91.217484,744.463074 91.517250,745.011841 
	C91.651779,746.793884 91.786308,748.575867 91.767921,750.862976 
	C91.916260,751.916016 92.217506,752.464050 92.518745,753.012024 
	C92.653343,754.793396 92.787949,756.574768 92.770241,758.861023 
	C92.918404,759.914673 93.218872,760.463501 93.519341,761.012268 
	C93.652786,762.794800 93.786224,764.577332 93.765793,766.865417 
	C93.915283,767.918213 94.218636,768.465393 94.521980,769.012634 
	C95.182625,774.391968 95.923935,779.763550 96.446053,785.156311 
	C96.573372,786.471313 95.981285,787.856079 95.358475,789.353699 
	C94.334976,787.267151 93.672981,785.035645 93.191498,782.222778 
	C93.074501,781.090454 92.777008,780.539490 92.479523,779.988464 
	C92.323814,778.273743 92.168106,776.559082 92.193008,774.241821 
	C92.069763,773.088562 91.765923,772.537964 91.462067,771.987366 
	C91.332779,770.206299 91.203506,768.425171 91.227692,766.139221 
	C91.077591,765.085388 90.774040,764.536499 90.470490,763.987549 
	C90.339355,762.206360 90.208214,760.425232 90.229431,758.138550 
	C90.076950,757.084534 89.772102,756.535889 89.467270,755.987305 
	C89.337997,754.204895 89.208725,752.422485 89.233543,750.134766 
	C89.082840,749.082031 88.778030,748.534668 88.473221,747.987305 
z"/>
<path fill="#C7DDC4" opacity="1.000000" stroke="none" 
	d="
M29.064503,667.888489 
	C28.690712,667.183167 28.316929,666.477783 27.955780,665.399780 
	C27.968416,665.027161 28.100508,664.868530 28.100513,664.868530 
	C32.158375,667.140747 36.246399,669.361389 40.261745,671.706421 
	C42.365917,672.935303 44.342625,674.382446 46.856197,676.161377 
	C48.231228,677.227966 49.126949,677.864197 50.022659,678.500366 
	C50.679161,679.274353 51.335674,680.048279 52.319870,681.300049 
	C53.105350,683.854370 53.563141,685.930847 53.953133,688.292236 
	C52.923687,688.718140 51.962036,688.859070 50.833176,688.713257 
	C46.456562,684.545166 42.247154,680.663879 37.847565,676.507324 
	C36.436237,675.829346 35.215092,675.426453 33.993946,675.023621 
	C33.993946,675.023621 33.992435,675.007324 34.054283,674.646729 
	C32.432255,672.153564 30.748381,670.021057 29.064503,667.888489 
z"/>
<path fill="#FBFCFB" opacity="1.000000" stroke="none" 
	d="
M54.020935,688.007324 
	C53.563141,685.930847 53.105350,683.854370 52.575226,681.378113 
	C53.609043,681.969055 55.551933,682.855713 55.690205,683.966858 
	C56.897739,693.671265 62.638676,700.388550 69.735031,706.799011 
	C69.090797,707.564270 68.463600,707.828674 67.836395,708.093018 
	C62.517941,702.999207 57.199497,697.905396 52.091125,692.448486 
	C54.970718,691.610046 55.677280,690.306946 54.020935,688.007324 
z"/>
<path fill="#FBFCFB" opacity="1.000000" stroke="none" 
	d="
M28.035839,580.266724 
	C32.701759,580.285339 37.367676,580.304016 42.502869,580.736877 
	C42.970951,582.025146 42.969761,582.899231 42.968567,583.773315 
	C38.300983,583.759033 33.633400,583.744812 28.495695,583.326050 
	C28.028996,582.036621 28.032417,581.151672 28.035839,580.266724 
z"/>
<path fill="#FBFCFB" opacity="1.000000" stroke="none" 
	d="
M4.120078,583.978882 
	C3.452836,581.091553 4.900469,579.923889 7.785630,579.981262 
	C13.526245,580.095581 19.269272,580.088867 25.329704,580.519592 
	C23.976866,581.271301 22.318756,581.721375 20.631287,581.979614 
	C18.110142,582.365479 15.568342,582.616394 13.035322,582.924622 
	C10.206309,583.248474 7.377298,583.572388 4.120078,583.978882 
z"/>
<path fill="#F5F8F4" opacity="1.000000" stroke="none" 
	d="
M43.373569,583.842651 
	C42.969761,582.899231 42.970951,582.025146 42.954483,580.834351 
	C47.061913,580.539856 51.187000,580.561951 55.644348,580.817627 
	C53.092926,581.743713 50.209240,582.436218 47.192223,583.460632 
	C45.965454,583.832397 44.872013,583.872192 43.373569,583.842651 
z"/>
<path fill="#F5F8F4" opacity="1.000000" stroke="none" 
	d="
M13.367310,583.161560 
	C15.568342,582.616394 18.110142,582.365479 20.631287,581.979614 
	C22.318756,581.721375 23.976866,581.271301 25.791676,580.568298 
	C26.403996,580.196228 26.872751,580.162903 27.688671,580.198120 
	C28.032417,581.151672 28.028996,582.036621 28.040363,583.245361 
	C23.269869,583.512268 18.484581,583.455383 13.367310,583.161560 
z"/>
<path fill="#FBFCFB" opacity="1.000000" stroke="none" 
	d="
M108.327599,926.375854 
	C107.443802,924.252319 106.890266,922.001160 106.667542,919.623535 
	C107.551521,921.747498 108.104691,923.997864 108.327599,926.375854 
z"/>
<path fill="#FBFCFB" opacity="1.000000" stroke="none" 
	d="
M74.789734,714.194153 
	C73.530045,713.116821 72.270340,712.039429 70.970390,710.214783 
	C70.975464,708.876099 71.020782,708.284729 71.066101,707.693359 
	C72.562683,708.959167 74.059273,710.224915 75.723793,712.047302 
	C75.524384,713.133972 75.157059,713.664062 74.789734,714.194153 
z"/>
<path fill="#F5F8F4" opacity="1.000000" stroke="none" 
	d="
M50.347542,678.396179 
	C49.126949,677.864197 48.231228,677.227966 47.166309,676.306641 
	C47.034809,675.470093 47.072510,674.918640 47.175377,673.952148 
	C49.309307,674.454529 52.530888,674.540039 50.347542,678.396179 
z"/>
<path fill="#FBFCFB" opacity="1.000000" stroke="none" 
	d="
M109.308403,930.391602 
	C108.538055,929.675842 108.078629,928.849304 107.805664,927.757690 
	C108.534523,928.421936 109.076927,929.351440 109.308403,930.391602 
z"/>
<path fill="#FBFCFB" opacity="1.000000" stroke="none" 
	d="
M110.309082,934.392456 
	C109.538330,933.675659 109.079163,932.849365 108.805817,931.757080 
	C109.534653,932.421692 110.077652,933.352295 110.309082,934.392456 
z"/>
<path fill="#FBFCFB" opacity="1.000000" stroke="none" 
	d="
M111.310883,938.394348 
	C110.538185,937.674805 110.078835,936.848755 109.805641,935.757141 
	C110.535934,936.423645 111.080078,937.355774 111.310883,938.394348 
z"/>
<path fill="#F5F8F4" opacity="1.000000" stroke="none" 
	d="
M74.963150,714.382202 
	C75.157059,713.664062 75.524384,713.133972 75.951309,712.282043 
	C76.949509,712.767700 77.888123,713.575256 78.997375,714.646484 
	C78.568909,714.970215 77.969803,715.030212 76.917099,715.159485 
	C76.021202,715.009216 75.578888,714.789673 74.963150,714.382202 
z"/>
<path fill="#F5F8F4" opacity="1.000000" stroke="none" 
	d="
M104.433456,576.333984 
	C104.850311,577.147522 105.204285,578.290161 105.380089,579.674011 
	C104.924805,578.831177 104.647682,577.747131 104.433456,576.333984 
z"/>
<path fill="#FBFCFB" opacity="1.000000" stroke="none" 
	d="
M112.249207,942.255981 
	C111.537521,941.675537 111.074684,940.847900 110.802795,939.757324 
	C111.495178,940.332520 111.996613,941.170593 112.249207,942.255981 
z"/>
<path fill="#F5F8F4" opacity="1.000000" stroke="none" 
	d="
M103.438622,569.334351 
	C103.854195,570.148621 104.205315,571.291504 104.378128,572.675720 
	C103.924614,571.832397 103.649391,570.747681 103.438622,569.334351 
z"/>
<path fill="#F5F8F4" opacity="1.000000" stroke="none" 
	d="
M70.948029,707.519043 
	C71.020782,708.284729 70.975464,708.876099 70.873749,709.911316 
	C69.943497,709.778137 69.069641,709.201111 68.016098,708.358521 
	C68.463600,707.828674 69.090797,707.564270 69.955513,707.045654 
	C70.432648,706.944458 70.644951,707.128845 70.948029,707.519043 
z"/>
<path fill="#F5F8F4" opacity="1.000000" stroke="none" 
	d="
M105.425690,583.333679 
	C105.845543,584.148193 106.200211,585.291809 106.375557,586.676697 
	C105.917664,585.832886 105.639084,584.747864 105.425690,583.333679 
z"/>
<path fill="#F5F8F4" opacity="1.000000" stroke="none" 
	d="
M106.409988,590.332886 
	C106.831055,591.145935 107.193947,592.289551 107.377518,593.674805 
	C106.916069,592.832153 106.633934,591.747803 106.409988,590.332886 
z"/>
<path fill="#F5F8F4" opacity="1.000000" stroke="none" 
	d="
M128.400452,810.260010 
	C128.767883,810.536743 129.072769,811.086243 129.215424,811.806274 
	C128.814758,811.495483 128.576324,811.014099 128.400452,810.260010 
z"/>
<path fill="#F5F8F4" opacity="1.000000" stroke="none" 
	d="
M129.405243,819.259094 
	C129.771545,819.538208 130.072556,820.088745 130.210770,820.809265 
	C129.811981,820.496338 129.575958,820.013428 129.405243,819.259094 
z"/>
<path fill="#F5F8F4" opacity="1.000000" stroke="none" 
	d="
M127.405945,801.259399 
	C127.775215,801.536926 128.077728,802.086060 128.218674,802.805176 
	C127.817802,802.493835 127.578491,802.012512 127.405945,801.259399 
z"/>
<path fill="#F5F8F4" opacity="1.000000" stroke="none" 
	d="
M125.412170,783.259399 
	C125.781639,783.536377 126.082634,784.084839 126.222961,784.803101 
	C125.822754,784.492249 125.583229,784.011597 125.412170,783.259399 
z"/>
<path fill="#F5F8F4" opacity="1.000000" stroke="none" 
	d="
M121.672714,966.378784 
	C121.365646,966.519958 120.728409,966.555603 120.029121,966.347412 
	C120.425560,966.160095 120.884064,966.216675 121.672714,966.378784 
z"/>
<path fill="#F5F8F4" opacity="1.000000" stroke="none" 
	d="
M91.585831,744.740479 
	C91.217484,744.463074 90.917732,743.914246 90.779053,743.195862 
	C91.178230,743.507202 91.416321,743.988159 91.585831,744.740479 
z"/>
<path fill="#F5F8F4" opacity="1.000000" stroke="none" 
	d="
M92.585098,752.740356 
	C92.217506,752.464050 91.916260,751.916016 91.775299,751.198120 
	C92.174202,751.508362 92.412819,751.988525 92.585098,752.740356 
z"/>
<path fill="#F5F8F4" opacity="1.000000" stroke="none" 
	d="
M126.401260,792.259949 
	C126.770569,792.535645 127.076134,793.084229 127.220428,793.803467 
	C126.818611,793.493713 126.578072,793.013245 126.401260,792.259949 
z"/>
<path fill="#F5F8F4" opacity="1.000000" stroke="none" 
	d="
M122.429749,756.258911 
	C122.792717,756.537354 123.087425,757.086121 123.222000,757.804077 
	C122.828407,757.492004 122.594948,757.010559 122.429749,756.258911 
z"/>
<path fill="#F5F8F4" opacity="1.000000" stroke="none" 
	d="
M93.585526,760.740540 
	C93.218872,760.463501 92.918404,759.914673 92.778778,759.196045 
	C93.176994,759.507080 93.414360,759.987915 93.585526,760.740540 
z"/>
<path fill="#F5F8F4" opacity="1.000000" stroke="none" 
	d="
M123.415771,765.258911 
	C123.783913,765.535034 124.085823,766.082397 124.228561,766.799927 
	C123.829430,766.490112 123.589485,766.010132 123.415771,765.258911 
z"/>
<path fill="#F5F8F4" opacity="1.000000" stroke="none" 
	d="
M94.586624,768.741211 
	C94.218636,768.465393 93.915283,767.918213 93.771019,767.200562 
	C94.170502,767.510071 94.410889,767.989929 94.586624,768.741211 
z"/>
<path fill="#F5F8F4" opacity="1.000000" stroke="none" 
	d="
M124.410156,774.259399 
	C124.778366,774.535583 125.081093,775.083923 125.223190,775.802551 
	C124.823265,775.492371 124.583969,775.012024 124.410156,774.259399 
z"/>
<path fill="#F5F8F4" opacity="1.000000" stroke="none" 
	d="
M99.326004,541.784058 
	C99.383865,541.506226 99.632805,541.532227 99.922882,541.902588 
	C99.992142,542.033936 99.545204,541.874756 99.326004,541.784058 
z"/>
<path fill="#BFD8BF" opacity="1.000000" stroke="none" 
	d="
M75.685654,969.570068 
	C75.872581,969.851318 75.705482,969.927856 75.280594,970.103149 
	C67.594154,970.027527 60.165493,969.853149 52.391056,969.476196 
	C59.807392,969.304260 67.569511,969.334839 75.685654,969.570068 
z"/>
<path fill="#BFD8BF" opacity="1.000000" stroke="none" 
	d="
M99.732903,969.760010 
	C99.783951,969.879272 99.388283,969.919373 99.198792,969.862427 
	C99.187965,969.553833 99.412148,969.498901 99.732903,969.760010 
z"/>
<path fill="#FBFCFB" opacity="1.000000" stroke="none" 
	d="
M38.037743,676.782532 
	C42.247154,680.663879 46.456562,684.545166 50.833427,689.111145 
	C51.016979,690.597534 51.033070,691.399292 51.049164,692.201050 
	C46.805233,688.336670 42.561295,684.472351 38.156693,679.916809 
	C38.009930,678.411255 38.023834,677.596863 38.037743,676.782532 
z"/>
<path fill="#F5F8F4" opacity="1.000000" stroke="none" 
	d="
M28.994457,668.216431 
	C30.748381,670.021057 32.432255,672.153564 34.046234,674.645996 
	C32.037979,673.581665 30.099621,672.157410 27.983778,670.454163 
	C28.178999,669.631592 28.551701,669.088013 28.994457,668.216431 
z"/>
<path fill="#F5F8F4" opacity="1.000000" stroke="none" 
	d="
M37.847561,676.507324 
	C38.023834,677.596863 38.009930,678.411255 37.989555,679.630798 
	C36.650681,678.590637 35.318275,677.145325 33.989906,675.361816 
	C35.215092,675.426453 36.436237,675.829346 37.847561,676.507324 
z"/>
<path fill="#F5F8F4" opacity="1.000000" stroke="none" 
	d="
M51.159973,692.223145 
	C51.033070,691.399292 51.016979,690.597534 51.000637,689.397888 
	C51.962036,688.859070 52.923687,688.718140 53.953133,688.292236 
	C55.677280,690.306946 54.970718,691.610046 51.898987,692.164673 
	C51.496780,692.243896 51.270786,692.245300 51.159973,692.223145 
z"/>
<path fill="#F5F8F4" opacity="1.000000" stroke="none" 
	d="
M89.403198,756.260010 
	C89.772102,756.535889 90.076950,757.084534 90.220444,757.803650 
	C89.819107,757.493713 89.579117,757.013184 89.403198,756.260010 
z"/>
<path fill="#F5F8F4" opacity="1.000000" stroke="none" 
	d="
M87.415802,740.259705 
	C87.782677,740.535645 88.084175,741.083374 88.225685,741.801270 
	C87.827278,741.491516 87.588852,741.011475 87.415802,740.259705 
z"/>
<path fill="#F5F8F4" opacity="1.000000" stroke="none" 
	d="
M88.405945,748.259155 
	C88.778030,748.534668 89.082840,749.082031 89.228012,749.799744 
	C88.825134,749.490417 88.581902,749.010681 88.405945,748.259155 
z"/>
<path fill="#F5F8F4" opacity="1.000000" stroke="none" 
	d="
M90.405670,764.259766 
	C90.774040,764.536499 91.077591,765.085388 91.219666,765.804565 
	C90.819077,765.493835 90.579964,765.012878 90.405670,764.259766 
z"/>
<path fill="#F5F8F4" opacity="1.000000" stroke="none" 
	d="
M91.398758,772.260071 
	C91.765923,772.537964 92.069763,773.088562 92.210205,773.809448 
	C91.809677,773.497375 91.572556,773.015076 91.398758,772.260071 
z"/>
<path fill="#F5F8F4" opacity="1.000000" stroke="none" 
	d="
M92.412636,780.259521 
	C92.777008,780.539490 93.074501,781.090454 93.208710,781.810913 
	C92.812202,781.497009 92.578972,781.013794 92.412636,780.259521 
z"/>
<path fill="#FBFCFB" opacity="1.000000" stroke="none" 
	d="
M83.774826,470.207001 
	C80.311546,466.978455 76.848274,463.749908 73.361435,460.081116 
	C73.938660,459.406586 74.539444,459.172302 75.429672,459.093842 
	C78.828613,462.128235 81.938103,465.006836 84.981285,468.217773 
	C84.534927,469.102417 84.154877,469.654724 83.774826,470.207001 
z"/>
<path fill="#F5F8F4" opacity="1.000000" stroke="none" 
	d="
M83.954353,470.479248 
	C84.154877,469.654724 84.534927,469.102417 85.274475,468.391357 
	C87.505783,470.106903 89.377602,471.981293 91.249420,473.855652 
	C90.873283,474.370514 90.497124,474.885376 90.054329,475.720886 
	C88.036415,474.278198 86.085144,472.514832 83.954353,470.479248 
z"/>
<path fill="#F5F8F4" opacity="1.000000" stroke="none" 
	d="
M75.140213,458.938019 
	C74.539444,459.172302 73.938660,459.406586 73.102303,459.873199 
	C72.599991,460.004730 72.371452,459.848206 72.058586,459.468750 
	C71.992439,458.712036 72.048805,458.122437 72.453506,457.209045 
	C73.581306,457.569489 74.360756,458.253754 75.140213,458.938019 
z"/>
<path fill="#C3DABF" opacity="1.000000" stroke="none" 
	d="
M75.429672,459.093842 
	C74.360756,458.253754 73.581306,457.569489 72.508545,456.770386 
	C68.295723,452.489990 64.376213,448.324402 59.362934,442.996368 
	C62.580734,442.996368 64.604202,442.940338 66.623703,443.006134 
	C74.913589,443.276306 83.208092,443.475403 91.489037,443.921112 
	C95.893936,444.158203 105.202621,452.938599 105.847046,457.836304 
	C105.610016,458.951904 105.548981,459.482086 105.487946,460.012299 
	C105.353355,461.793854 105.218773,463.575409 104.877823,465.889404 
	C104.612427,466.951904 104.553398,467.481964 104.494370,468.012024 
	C103.925087,473.739258 103.355789,479.466461 102.756165,485.619629 
	C102.543076,486.529907 102.360321,487.014282 102.140457,487.757202 
	C101.750816,489.720886 101.398285,491.425995 101.045761,493.131073 
	C100.732933,493.135132 100.420105,493.139160 100.107277,493.143219 
	C98.438698,488.171082 96.896713,483.150604 95.027969,478.254852 
	C94.431618,476.692535 92.968315,475.461121 91.575562,473.966980 
	C89.377602,471.981293 87.505783,470.106903 85.340775,468.058960 
	C81.938103,465.006836 78.828613,462.128235 75.429672,459.093842 
z"/>
<path fill="#C7DDC4" opacity="1.000000" stroke="none" 
	d="
M102.780197,437.324158 
	C104.279953,436.275604 105.534302,435.454468 106.987244,434.378723 
	C107.982338,434.977692 109.534538,435.915314 109.450470,436.670929 
	C108.969788,440.991455 108.099930,445.268646 107.341301,449.682343 
	C97.972816,446.144958 96.681091,442.398102 102.780197,437.324158 
z"/>
<path fill="#F5F8F4" opacity="1.000000" stroke="none" 
	d="
M104.702194,467.931366 
	C104.553398,467.481964 104.612427,466.951904 104.869049,466.224396 
	C105.014435,466.634857 104.962227,467.242798 104.702194,467.931366 
z"/>
<path fill="#F5F8F4" opacity="1.000000" stroke="none" 
	d="
M105.696472,459.932129 
	C105.548981,459.482086 105.610016,458.951904 105.869453,458.224609 
	C106.013573,458.635681 105.959282,459.243805 105.696472,459.932129 
z"/>
<path fill="#C7DDC4" opacity="1.000000" stroke="none" 
	d="
M27.900660,665.104980 
	C27.555704,664.933228 27.278505,664.683594 27.001301,664.433960 
	C27.273855,664.478394 27.546415,664.522827 27.959742,664.717896 
	C28.100508,664.868530 27.968416,665.027161 27.900660,665.104980 
z"/>
<path fill="#F5F8F4" opacity="1.000000" stroke="none" 
	d="
M182.740356,1011.851318 
	C182.396027,1010.602539 182.323578,1009.212830 182.350800,1007.414673 
	C182.637741,1008.574219 182.824982,1010.142273 182.740356,1011.851318 
z"/>
<path fill="#F5F8F4" opacity="1.000000" stroke="none" 
	d="
M154.690796,1023.818604 
	C153.415695,1024.029785 151.850891,1024.016357 150.148193,1023.733582 
	C151.473907,1023.507385 152.937485,1023.550720 154.690796,1023.818604 
z"/>
<path fill="#F5F8F4" opacity="1.000000" stroke="none" 
	d="
M168.740601,1021.414124 
	C168.462448,1021.780151 167.912842,1022.079468 167.193558,1022.216919 
	C167.505630,1021.819153 167.987381,1021.583313 168.740601,1021.414124 
z"/>
</svg>